<?xml version="1.0" encoding="utf-8"?>
<!-- Generator: Adobe Illustrator 16.0.0, SVG Export Plug-In . SVG Version: 6.00 Build 0)  -->
<!DOCTYPE svg PUBLIC "-//W3C//DTD SVG 1.1//EN" "http://www.w3.org/Graphics/SVG/1.1/DTD/svg11.dtd">
<svg version="1.1" id="Layer_1" xmlns="http://www.w3.org/2000/svg" xmlns:xlink="http://www.w3.org/1999/xlink" x="0px" y="0px"
	 width="100px" height="100px" viewBox="0 0 100 100" enable-background="new 0 0 100 100" xml:space="preserve">
<path fill="#E6A653" d="M98.402,46.14l-21.61-21.612L51.369,50L76.84,75.425l21.563-21.565C99.432,52.829,100,51.458,100,50
	C100,48.54,99.432,47.17,98.402,46.14z M81.068,41.891l2.767-1.844l1.383,1.383l-1.844,2.765l-1.612,0.691l-2.354,2.354
	c-0.459-0.46-0.926-0.929-1.381-1.385l2.352-2.351L81.068,41.891z M76.012,52.939l-7.845,7.846c-0.36,0.359-1.498-0.115-1.844-0.461
	l-1.382-1.383c-0.346-0.346-0.821-1.484-0.461-1.844l7.844-7.845c0.361-0.36,1.496,0.115,1.843,0.46l0.536-0.537
	c0.247,0.248,0.506,0.507,0.787,0.789l0.596,0.596l-0.536,0.535C75.895,51.441,76.37,52.579,76.012,52.939z M88.797,59.031
	l-0.779,0.781c-0.443,0.441-1.033,0.687-1.658,0.687c-0.627,0-1.217-0.244-1.658-0.687l-7.04-7.041
	c-0.442-0.442-0.687-1.033-0.687-1.658c0-0.229,0.032-0.451,0.096-0.665c-1.49-1.492-4.975-4.979-5.018-5.024
	c-0.478-0.5-0.934-0.93-1.681-0.621c-0.681,0.281-0.892,0.543-1.353,1.002c-0.226,0.226-0.023,0.546,0.078,0.669
	c0.104,0.121,0.209,0.524-0.009,0.818c-0.278,0.373-0.548,0.795-1.062,0.844c-0.207,0.019-0.486-0.071-0.633-0.213
	c-0.677-0.668-1.652-1.725-1.785-1.866s-0.334-0.548-0.078-0.842c0.182-0.208,0.354-0.334,0.566-0.508
	c0.422-0.344,0.646-0.469,1.01-0.35c0.274,0.09,0.479-0.132,0.672-0.309c0.306-0.275,0.396-0.375,0.562-0.583
	c0.296-0.375-0.347-0.92,0.462-1.755c0.602-0.57,1.17-1.173,1.764-1.75c0.725-0.708,1.574-1.213,2.545-1.509
	c1.854-0.565,3.688-0.36,5.533,0.113c0,0.227,0,0.428,0,0.572c-0.845,0.205-1.656,0.36-2.438,0.606
	c-0.857,0.27-1.618,0.746-2.26,1.385c-0.52,0.518-0.528,1.083-0.049,1.631c0.129,0.148,0.26,0.294,0.396,0.45
	c0.04,0.045,3.396,3.412,4.93,4.949c0.273-0.109,0.568-0.168,0.871-0.168c0.627,0,1.217,0.244,1.657,0.687l7.041,7.04
	C89.71,56.629,89.71,58.115,88.797,59.031z"/>
<path fill="#327589" d="M23.159,24.577L1.596,46.14C0.565,47.171,0,48.54,0,50c0,1.458,0.567,2.83,1.597,3.859l21.611,21.613
	L48.629,50L23.159,24.577z M36.183,44.812l-2.47,2.468l-1.37-1.371l2.469-2.468L36.183,44.812z M33.986,42.617l-2.466,2.468
	l-1.371-1.371l2.466-2.468L33.986,42.617z M31.794,40.424l-2.466,2.468l-1.373-1.371l2.466-2.469L31.794,40.424z M28.228,36.861
	l1.373,1.371l-2.467,2.471l-1.373-1.371L28.228,36.861z M18.091,37.138l2.466,2.467l-1.371,1.371l-2.467-2.467L18.091,37.138z
	 M15.893,39.327l2.467,2.467l-1.371,1.37l-2.467-2.467L15.893,39.327z M13.694,41.524l2.468,2.467l-1.371,1.372l-2.469-2.467
	L13.694,41.524z M11.505,43.713l2.468,2.468l-1.371,1.371l-2.468-2.468L11.505,43.713z M10.134,54.959l2.467-2.467l1.371,1.369
	l-2.467,2.469L10.134,54.959z M12.329,57.152l2.467-2.469l1.371,1.371L13.7,58.523L12.329,57.152z M14.521,59.348l2.468-2.468
	l1.372,1.371l-2.468,2.468L14.521,59.348z M18.087,62.913l-1.372-1.371l2.467-2.472l1.373,1.371L18.087,62.913z M23.295,60.738
	c-0.517,0-1.005-0.202-1.372-0.569l-8.774-8.772c-0.755-0.758-0.755-1.987,0-2.744l8.774-8.775c0.367-0.366,0.855-0.568,1.372-0.568
	s1.004,0.202,1.372,0.568l8.773,8.775c0.366,0.366,0.568,0.853,0.568,1.372c0,0.518-0.202,1.004-0.568,1.372l-8.772,8.773
	C24.3,60.536,23.813,60.738,23.295,60.738z M28.232,63.186l-2.467-2.469l1.371-1.369l2.466,2.469L28.232,63.186z M30.424,60.992
	l-2.468-2.469l1.371-1.371l2.468,2.469L30.424,60.992z M32.619,58.8l-2.469-2.47l1.372-1.373l2.469,2.471L32.619,58.8z
	 M34.81,56.604l-2.467-2.468l1.372-1.37l2.467,2.467L34.81,56.604z"/>
<path fill="#DB2D27" d="M53.857,1.592C52.831,0.566,51.46,0,50,0c-1.461,0-2.833,0.566-3.859,1.594L24.53,23.206L50,48.628
	l25.42-25.471L53.857,1.592z M53.658,35.616c-0.219-0.02-0.518,0.062-0.506-0.212c0.011-0.275,1.123-0.484,1.589-1.213
	c1.661-2.589-1.054-3.19-0.966-6.352c-0.791,0.996-1.274,2.92-1.313,3.323c-1.76-3.058,1.164-3.176-2.727-8.033
	c0.907,3.696-1.317,5.559-2.019,6.995c-0.146-1.523-0.155-1.796-0.876-2.897c-1.384,3.872-2.275,6.046,0.381,7.725
	c0.189,0.125,0.793,0.338,0.743,0.549c-0.049,0.21-0.49,0.124-0.606,0.101c-1.7-0.328-3.295-0.918-4.698-1.958
	c-2.146-1.589-2.905-3.788-2.188-6.36c1.002-3.599,3.87-5.011,2.408-8.901c2.017,1.146,2.984,3.313,2.888,6.18
	c3.167-2.896-2.977-8.924,4.883-15.625c-1.452,4.798,0.039,8.368,2.742,12.278c1.102-3.002,2.389-4.26,4.205-5.231
	c-3.103,8.638,3.537,10.394,1.93,14.782C57.807,35.474,53.88,35.634,53.658,35.616z"/>
<path fill="#010101" d="M50.672,87.111c-0.139-0.23-0.453-0.375-1.17-0.351c-0.635,0.021-0.953,0.132-1.114,0.31
	c-1.276-0.786-3.419-1.881-5.208-1.67c-0.729,1.58-0.116,5.041,0.636,5.109c0.562,0.055,2.904-1.393,4.466-2.101
	c0.104,0.286,0.399,0.473,1.221,0.47c0.499-0.005,0.803-0.072,0.989-0.191c1.529,0.896,3.898,1.889,5.076,1.679
	c0,0,1.879-3.351,0.879-4.726C54.443,85.475,52.837,85.877,50.672,87.111z M39.061,69.977c0.33,0.158,0.414,0.67,0.188,1.142
	c-0.227,0.472-0.678,0.728-1.008,0.567c-0.33-0.158-0.414-0.67-0.187-1.141C38.28,70.07,38.731,69.816,39.061,69.977z
	 M60.658,69.998c0.31,0.475,0.259,1.057-0.112,1.301c-0.373,0.242-0.926,0.055-1.235-0.423c-0.311-0.474-0.26-1.056,0.111-1.299
	C59.795,69.335,60.348,69.521,60.658,69.998z M50,51.371L24.578,76.844l21.563,21.563C47.168,99.436,48.54,100,50,100
	c1.459,0,2.833-0.564,3.857-1.594l21.588-21.588L50,51.371z M59.104,66.886c2.408,0,4.371,1.962,4.371,4.371
	s-1.961,4.372-4.371,4.372c-2.408,0-4.371-1.963-4.371-4.372C54.734,68.848,56.695,66.886,59.104,66.886z M40.543,68.641
	c0.649,0,1.268,0.18,1.804,0.519c-0.006,0.006-0.013,0.016-0.02,0.021c-1.583,1.692-3.007,3.643-3.803,5.666
	c-0.927-0.621-1.388-1.652-1.388-2.801C37.137,70.167,38.664,68.641,40.543,68.641z M52.214,96.762
	c-0.59,0.588-1.375,0.912-2.213,0.912c-0.84,0-1.626-0.324-2.215-0.912L37.727,86.701c-0.208-2.585,0.014-4.155,0.044-4.395
	c0.781-6.272,4.05-10.832,5.642-12.34c2.186-2.07,4.854-3.182,7.927-3.305c1.33-0.049,2.717,0.176,4.073,0.628
	c-1.063,0.994-1.733,2.401-1.733,3.966c0,2.992,2.434,5.428,5.426,5.428c1.854,0,3.49-0.936,4.472-2.359
	c1.016,1.996,2.141,5.76,1.354,9.722L52.214,96.762z M48.704,82.589c5.721,0,4.938-5.899,4.938-5.899s-6.929,0.875-10.984,0.438
	C42.151,78.997,42.982,82.589,48.704,82.589z"/>
</svg>
