<?xml version="1.0" encoding="utf-8"?>
<!-- Generator: Adobe Illustrator 16.0.0, SVG Export Plug-In . SVG Version: 6.00 Build 0)  -->
<!DOCTYPE svg PUBLIC "-//W3C//DTD SVG 1.1//EN" "http://www.w3.org/Graphics/SVG/1.1/DTD/svg11.dtd">
<svg version="1.1" id="Layer_2" xmlns="http://www.w3.org/2000/svg" xmlns:xlink="http://www.w3.org/1999/xlink" x="0px" y="0px"
	 width="283.465px" height="283.465px" viewBox="0 0 283.465 283.465" enable-background="new 0 0 283.465 283.465"
	 xml:space="preserve">
<g id="engrave">
	<path d="M131.955,214.893c-1.324,0.971-3.147,0.889-4.379-0.199l-3.331-2.934c-0.754-0.664-1.187-1.621-1.187-2.626v-2.825
		c0-0.957,0.392-1.871,1.084-2.531l3.285-3.137c1.164-1.109,2.935-1.283,4.292-0.423l0.995,0.63
		c0.347,0.217,0.686,0.432,1.021,0.645V188.23c0-1.762,0-3.522,0-5.283c-37.806-3.985-67.269-35.961-67.269-74.823
		c0-12.919,3.26-25.075,8.996-35.698C69.394,78.061,64.533,84.6,60.958,92.071c-3.796,7.934-5.797,16.321-6.083,25.109
		c-0.23,7.104,0.72,14.073,2.491,20.942c0.073,0.285,0.083,0.587,0.137,0.985c-0.31-0.097-0.475-0.12-0.609-0.196
		c-0.318-0.18-0.63-0.371-0.929-0.581c-2.166-1.523-3.847-3.479-5.11-5.796c-2.269-4.16-3.139-8.662-3.231-13.35
		c-0.004-0.203,0.01-0.407-0.004-0.609c-0.014-0.191-0.055-0.38-0.084-0.57c-1.252,4.115-1.71,8.267-1.559,12.513
		c0.16,4.491,0.935,8.859,2.217,13.15c2.417,8.089,6.584,15.242,11.724,21.872c0.236,0.306,0.456,0.622,0.684,0.933
		c-0.081,0.09-0.162,0.178-0.243,0.266c-6.256-0.913-10.077-5.413-13.975-9.834c-0.111,0.15-0.222,0.234-0.241,0.338
		c-0.044,0.238-0.049,0.482-0.061,0.727c-0.131,2.717,0.357,5.329,1.323,7.859c2.133,5.581,6.022,9.765,10.679,13.313
		c6.039,4.603,12.87,7.67,19.972,10.199c0.39,0.139,0.78,0.278,1.171,0.417c-0.027,0.121-0.054,0.241-0.081,0.361
		c-6.252,0.948-12.446,0.166-18.628-0.945c-0.05,0.086-0.1,0.171-0.15,0.257c0.904,0.963,1.77,1.965,2.717,2.883
		c4.936,4.781,10.757,8.213,17.008,10.94c7.4,3.229,15.145,5.283,23.103,6.573c0.279,0.045,0.547,0.156,0.82,0.236
		c-0.009,0.104-0.017,0.209-0.026,0.312c-7.55,3.128-15.553,2.765-23.542,2.907c-0.037,0.086-0.069,0.172-0.104,0.259
		c15.282,12.396,34.394,20.239,55.28,21.528v-22.012C134.587,213.232,133.425,213.818,131.955,214.893z"/>
	<path d="M234.967,159.279c-2.488,2.707-5.15,5.197-8.623,6.623c-1.08,0.443-2.184,0.802-3.589,0.695
		c0.363-0.506,0.649-0.879,0.91-1.269c2.142-3.203,4.492-6.289,6.379-9.636c5.761-10.221,8.644-21.118,7.028-32.936
		c-0.209-1.53-0.592-3.036-0.895-4.552c-0.095,0.012-0.189,0.025-0.281,0.037c-0.049,0.682-0.114,1.363-0.14,2.045
		c-0.136,3.605-0.84,7.094-2.257,10.412c-1.299,3.042-3.214,5.636-5.941,7.568c-0.469,0.332-0.996,0.579-1.758,1.014
		c3.396-13,3.965-25.693,0.094-38.363c-3.418-11.194-9.465-20.598-17.861-28.361c5.691,10.592,8.927,22.7,8.927,35.565
		c0,38.477-28.884,70.186-66.147,74.682v18.666c0.313-0.203,0.627-0.404,0.94-0.604l0.845-0.542c1.045-0.674,2.37-0.744,3.479-0.184
		c1.853,0.937,3.019,2.262,3.958,3.325l0.313,0.353c1.041,1.164,1.086,2.539,1.107,3.201l0.006,0.151
		c0.031,0.416,0.029,0.838,0.023,1.363l-0.006,0.608c0,1.004-0.431,1.959-1.184,2.625l-3.275,2.892
		c-1.143,1.009-2.808,1.163-4.117,0.378l-1-0.605c-0.625-0.383-1.215-0.742-1.816-1.08c-0.326-0.183-0.661-0.283-1.072-0.32v21.957
		c20.393-1.512,39.047-9.276,54.026-21.412c-0.015-0.03-0.024-0.059-0.04-0.09c-0.029-0.115-0.059-0.23-0.087-0.346
		c-1.53,0-3.062-0.018-4.593,0.002c-4.758,0.063-9.49-0.199-14.149-1.238c-1.642-0.367-3.278-0.775-4.991-1.799
		c0.549-0.142,0.834-0.237,1.127-0.285c6.824-1.104,13.492-2.807,19.943-5.299c7.174-2.77,13.84-6.416,19.536-11.664
		c1.173-1.08,2.221-2.297,3.327-3.451c-0.055-0.079-0.11-0.16-0.166-0.24c-6.18,1.104-12.368,1.914-18.656,0.777
		c0.316-0.297,0.663-0.447,1.016-0.582c1.93-0.741,3.887-1.42,5.789-2.229c6.5-2.762,12.665-6.091,17.824-11.015
		c4.27-4.074,7.391-8.825,8.305-14.79c0.223-1.459,0.187-2.932-0.076-4.41C236.335,157.693,235.676,158.51,234.967,159.279z"/>
	<path d="M150.813,38.904v1.503c33.396,4.465,59.242,33.12,59.242,67.717c0,34.597-25.847,63.251-59.242,67.717v3.578
		c35.358-4.489,62.793-34.737,62.793-71.294c0-36.561-27.441-66.813-62.806-71.296c0.027,0.517,0.026,1.023,0.019,1.528
		L150.813,38.904z"/>
	<path d="M69.823,108.124c0,36.942,28.013,67.454,63.911,71.438c0-1.193,0-2.385,0-3.578c-33.935-3.967-60.361-32.877-60.361-67.859
		c0-34.977,26.417-63.883,60.343-67.857c0-0.857,0-1.713,0-2.57c0-0.35,0.035-0.683,0.069-1.016
		C97.863,40.641,69.823,71.164,69.823,108.124z"/>
	<path d="M160.794,115.778c-3.67,0-7.084-1.065-9.981-2.88v26.09c0.387,0.105,0.656,0.17,0.744,0.17
		c1.154-3.032,2.27-5.959,3.387-8.896c1.951,0.292,3.894,0.441,5.852,0.437c1.958,0.004,3.9-0.145,5.852-0.437
		c1.117,2.937,2.231,5.864,3.387,8.896c0.511,0,6.904-2.083,9.625-2.88c-0.359-3.537-1.32-6.85-1.789-10.331
		c3.281-2.016,6.07-4.593,8.613-7.569c2.763,1.689,5.451,3.333,8.357,5.112c2.104-2.57,3.821-5.28,5.876-8.017
		c-2.935-2.603-5.978-5.505-8.584-7.818c1.22-3.575,1.788-6.582,2.042-10.092c0.362-0.094,0.827-0.223,1.295-0.335
		c2.405-0.577,4.815-1.133,7.213-1.737c0.463-0.116,0.879-0.416,1.286-0.615c-0.467-2.868-0.885-5.51-1.338-8.147
		c-0.077-0.452-0.302-0.877-0.474-1.355c-3.4,0.215-6.664,0.421-10,0.631c-1.363-4.008-3.409-7.531-5.895-10.705
		c0.094-0.217,0.11-0.305,0.16-0.363c1.645-1.907,3.301-3.804,4.932-5.723c0.318-0.375,0.535-0.835,0.75-1.181
		c-1.25-1.791-6.055-6.38-7.127-6.746c-2.506,2.046-5.104,4.167-7.74,6.322c-3.139-1.789-6.42-3.036-9.922-3.809
		c-0.248-0.072-0.492-0.143-0.744-0.216c-0.061-0.575-0.119-1.145-0.18-1.714c-0.175-2.259-0.352-4.528-0.522-6.741
		c-0.048-0.024-0.112-0.047-0.187-0.069c0-0.014-0.002-0.028-0.004-0.042c-0.693-0.237-2.785-0.341-4.884-0.327
		c-2.099-0.014-4.19,0.089-4.884,0.327c-0.001,0.014-0.004,0.028-0.004,0.042c-0.074,0.022-0.139,0.045-0.186,0.069
		c-0.173,2.212-0.349,4.481-0.523,6.741c-0.059,0.569-0.119,1.139-0.18,1.714c-0.252,0.073-0.496,0.145-0.744,0.216
		c-1.18,0.261-2.326,0.596-3.459,0.967v16.184c2.896-1.814,6.311-2.88,9.98-2.88c10.413,0,18.854,8.44,18.854,18.853
		C179.646,107.337,171.207,115.778,160.794,115.778z"/>
	<path d="M119.43,85.375c-0.171,0.478-0.396,0.904-0.474,1.355c-0.453,2.637-0.871,5.279-1.337,8.147
		c0.407,0.2,0.823,0.499,1.286,0.615c2.398,0.604,4.808,1.161,7.213,1.737c0.469,0.112,0.934,0.241,1.295,0.335
		c0.601,3.499,1.255,6.923,2.312,10.254c-2.607,2.313-5.919,5.053-8.853,7.656c2.055,2.736,3.773,5.447,5.876,8.017
		c2.421-1.481,4.692-2.87,6.978-4.268c-0.001-13.907-0.002-27.814-0.005-41.722c-1.763,2.587-3.234,5.399-4.29,8.505
		C126.095,85.796,122.832,85.59,119.43,85.375z"/>
	<path d="M133.719,63.563c-1.668,1.536-3.524,3.455-4.235,4.472c0.216,0.345,0.432,0.806,0.75,1.181
		c1.152,1.357,2.321,2.7,3.487,4.046C133.72,70.029,133.72,66.796,133.719,63.563z"/>
	<path d="M84.002,122.473c-0.156,0.184-0.263,0.41-0.368,0.579c0.614,0.879,2.972,3.132,3.499,3.311
		c1.23-1.004,2.504-2.045,3.799-3.103c1.541,0.878,3.151,1.49,4.87,1.87c0.121,0.035,0.241,0.07,0.365,0.106
		c0.03,0.283,0.059,0.563,0.088,0.842c0.086,1.109,0.172,2.223,0.256,3.309c0.023,0.012,0.055,0.023,0.092,0.034
		c0,0.007,0.001,0.014,0.002,0.021c0.34,0.117,1.367,0.167,2.397,0.161c1.03,0.007,2.057-0.043,2.397-0.161
		c0-0.007,0.001-0.013,0.002-0.021c0.036-0.011,0.068-0.022,0.091-0.034c0.084-1.086,0.171-2.2,0.257-3.309
		c0.029-0.279,0.058-0.559,0.088-0.842c0.124-0.036,0.244-0.071,0.365-0.106c1.718-0.379,3.329-0.991,4.87-1.87
		c1.295,1.058,2.57,2.099,3.8,3.103c0.527-0.179,2.885-2.432,3.499-3.311c-0.105-0.169-0.212-0.396-0.368-0.579
		c-0.8-0.942-1.613-1.873-2.42-2.809c-0.025-0.029-0.033-0.072-0.079-0.179c1.22-1.558,2.225-3.287,2.894-5.254
		c1.638,0.103,3.239,0.205,4.909,0.31c0.084-0.235,0.195-0.444,0.233-0.666c0.222-1.294,0.427-2.591,0.656-3.999
		c-0.2-0.098-0.404-0.245-0.631-0.302c-1.177-0.297-2.36-0.57-3.541-0.853c-0.23-0.055-0.458-0.118-0.636-0.165
		c-0.294-1.717-0.616-3.398-1.134-5.033c1.28-1.136,2.905-2.48,4.345-3.758c-1.009-1.343-1.852-2.674-2.884-3.935
		c-1.427,0.873-2.747,1.68-4.103,2.509c-1.248-1.461-2.617-2.726-4.228-3.716c0.23-1.708,0.701-3.335,0.878-5.071
		c-1.336-0.391-4.474-1.414-4.725-1.414c-0.566,1.488-1.114,2.925-1.662,4.367c-0.958-0.144-1.911-0.216-2.872-0.214
		c-0.961-0.002-1.915,0.071-2.872,0.214c-0.548-1.441-1.096-2.878-1.662-4.367c-0.251,0-3.389,1.023-4.725,1.414
		c0.177,1.736,0.648,3.362,0.878,5.071c-1.611,0.99-2.979,2.255-4.228,3.716c-1.355-0.83-2.675-1.636-4.103-2.509
		c-1.032,1.261-1.876,2.592-2.884,3.935c1.44,1.278,2.934,2.702,4.213,3.837c-0.598,1.755-0.877,3.23-1.002,4.954
		c-0.178,0.046-0.406,0.11-0.636,0.165c-1.181,0.283-2.364,0.556-3.541,0.853c-0.228,0.057-0.432,0.204-0.632,0.302
		c0.229,1.408,0.435,2.705,0.657,3.999c0.038,0.222,0.148,0.431,0.232,0.666c1.67-0.105,3.271-0.207,4.909-0.31
		c0.669,1.967,1.673,3.697,2.894,5.254c-0.046,0.106-0.054,0.15-0.079,0.179C85.616,120.6,84.803,121.531,84.002,122.473z
		 M99.003,99.617c5.111,0,9.254,4.143,9.254,9.254s-4.143,9.254-9.254,9.254s-9.254-4.143-9.254-9.254S93.893,99.617,99.003,99.617z
		"/>
	<path d="M107.73,161.152c-0.156,0.185-0.262,0.41-0.368,0.58c0.614,0.879,2.972,3.133,3.499,3.312
		c1.229-1.004,2.505-2.045,3.8-3.103c1.541,0.877,3.151,1.49,4.869,1.869c0.122,0.035,0.242,0.07,0.365,0.106
		c0.03,0.283,0.059,0.563,0.088,0.842c0.086,1.109,0.172,2.224,0.257,3.31c0.023,0.012,0.055,0.022,0.091,0.033
		c0.001,0.008,0.001,0.015,0.002,0.021c0.34,0.117,1.367,0.167,2.397,0.161c1.03,0.007,2.057-0.044,2.397-0.161
		c0.001-0.007,0.001-0.014,0.002-0.021c0.036-0.011,0.068-0.021,0.091-0.033c0.084-1.086,0.17-2.2,0.257-3.31
		c0.029-0.278,0.058-0.559,0.088-0.842c0.124-0.036,0.244-0.071,0.365-0.106c1.719-0.379,3.329-0.992,4.87-1.869
		c0.995,0.813,1.971,1.609,2.931,2.394c0-9.666-0.003-19.331-0.004-28.997c-0.807-0.759-1.666-1.449-2.616-2.033
		c0.23-1.709,0.702-3.335,0.878-5.071c-1.335-0.391-4.474-1.414-4.725-1.414c-0.567,1.488-1.114,2.926-1.663,4.367
		c-0.957-0.143-1.911-0.216-2.872-0.214c-0.961-0.002-1.915,0.071-2.872,0.214c-0.549-1.441-1.096-2.878-1.662-4.367
		c-0.251,0-3.389,1.023-4.725,1.414c0.177,1.736,0.648,3.362,0.878,5.071c-1.611,0.99-2.98,2.255-4.228,3.715
		c-1.356-0.829-2.675-1.636-4.103-2.509c-1.032,1.261-1.875,2.592-2.884,3.935c1.44,1.277,2.934,2.702,4.213,3.837
		c-0.599,1.755-0.878,3.23-1.003,4.953c-0.177,0.047-0.405,0.109-0.636,0.166c-1.181,0.283-2.363,0.556-3.54,0.853
		c-0.228,0.058-0.432,0.204-0.632,0.302c0.229,1.408,0.435,2.705,0.657,4c0.038,0.221,0.148,0.43,0.232,0.666
		c1.669-0.105,3.271-0.207,4.909-0.311c0.669,1.967,1.673,3.697,2.893,5.254c-0.045,0.105-0.054,0.148-0.078,0.178
		C109.344,159.279,108.53,160.211,107.73,161.152z M122.731,138.297c5.111,0,9.254,4.145,9.254,9.254
		c0,5.11-4.143,9.254-9.254,9.254s-9.254-4.144-9.254-9.254C113.477,142.441,117.621,138.297,122.731,138.297z"/>
	<path d="M154.705,212.037c1.218-1.076,2.327-2.055,3.275-2.893c0-0.744,0.027-1.231-0.008-1.715c-0.033-0.436,0.014-1-0.232-1.277
		c-0.936-1.043-1.823-2.172-3.241-2.889c-0.919,0.594-1.843,1.168-2.743,1.777c-1.587,1.075-2.775,1.072-4.441-0.119
		c0-0.979,0-2.031,0-3.083c0-54.312,0,54.312,0,0c0-0.649,0.029-164.237-0.008-164.885c-0.023-0.396-0.047-0.852-0.246-1.17
		c-1.527-2.434-3.098-4.841-4.771-7.438c-1.479,2.27-2.796,4.365-4.194,6.403c-0.627,0.913-0.859,1.835-0.859,2.946
		c0.022,55.165,0,110.331,0,165.495c0,0.604,0,1.207,0,1.727c-1.677,1.184-2.799,1.205-4.359,0.186
		c-0.972-0.635-1.959-1.246-3.033-1.928c-1.197,1.143-2.272,2.168-3.286,3.137c0,1,0,1.849,0,2.824
		c1.041,0.918,2.122,1.869,3.331,2.934c2.843-2.078,5.766-3.361,9.234-2.008c0,11.338,0,22.582,0,33.838
		c-0.502,0.313-1,0.584-1.459,0.91c-3.201,2.271-3.28,6.414-0.177,8.775c2.389,1.818,6.137,2.051,8.747,0.542
		c4.117-2.379,4.211-7.097,0.193-9.623c-0.306-0.192-0.613-0.38-0.912-0.563c0-11.321,0-22.599,0-34.019
		c2.176-0.444,4.264-0.75,6.283,0.382C152.74,210.828,153.654,211.406,154.705,212.037z"/>
</g>
<rect id="bounds" x="28.346" y="28.346" fill="none" stroke="#FF0000" stroke-miterlimit="10" width="226.772" height="226.772"/>
</svg>
