<?xml version="1.0" encoding="utf-8"?>
<!-- Generator: Adobe Illustrator 16.0.0, SVG Export Plug-In . SVG Version: 6.00 Build 0)  -->
<!DOCTYPE svg PUBLIC "-//W3C//DTD SVG 1.1//EN" "http://www.w3.org/Graphics/SVG/1.1/DTD/svg11.dtd">
<svg version="1.1" id="Layer_1" xmlns="http://www.w3.org/2000/svg" xmlns:xlink="http://www.w3.org/1999/xlink" x="0px" y="0px"
	 width="289.439px" height="289.129px" viewBox="3.219 286.064 289.439 289.129"
	 enable-background="new 3.219 286.064 289.439 289.129" xml:space="preserve">
<path fill="#231F20" d="M211.181,380.7l9.538-3.874c0.707,0.897,1.791,1.485,3.023,1.485c2.132,0,3.86-1.729,3.86-3.86
	c0-0.275-0.031-0.543-0.086-0.803l25.323-13.402c0.402,0.663,1.125,1.11,1.961,1.11c1.269,0,2.301-1.028,2.301-2.299
	c0-0.342-0.079-0.663-0.212-0.954l7.34-3.886c0.497,0.526,1.134,0.907,1.853,1.104l0.082,23.117
	c-1.61,0.469-2.794,1.938-2.794,3.697c0,2.137,1.731,3.869,3.868,3.869c2.136,0,3.868-1.732,3.868-3.869
	c0-1.768-1.195-3.244-2.816-3.704l-0.018-4.944c0.181,0.041,0.366,0.067,0.56,0.067c1.394,0,2.524-1.13,2.524-2.524
	c0-1.394-1.131-2.523-2.524-2.523c-0.199,0-0.391,0.028-0.577,0.072l-0.047-13.268c1.682-0.473,2.922-2,2.922-3.833
	c0-2.208-1.79-3.999-3.999-3.999c-0.063,0-0.12,0.016-0.183,0.019l-5.918-18.125c1.069-0.713,1.775-1.929,1.775-3.311
	c0-2.196-1.78-3.978-3.978-3.978s-3.979,1.781-3.979,3.978s1.781,3.978,3.979,3.978c0.061,0,0.117-0.015,0.178-0.018l5.919,18.124
	c-1.08,0.716-1.793,1.94-1.793,3.332c0,0.297,0.037,0.584,0.099,0.862l-8.35,4.421c-0.027-0.001-0.053-0.009-0.08-0.009
	c-0.822,0-1.536,0.433-1.942,1.08l-1.212,0.641c-0.344-0.85-1.174-1.452-2.149-1.452c-1.278,0-2.315,1.04-2.315,2.321
	c0,0.477,0.145,0.919,0.392,1.287l-21.055,11.146c-0.702-0.73-1.684-1.188-2.776-1.188c-2.133,0-3.861,1.729-3.861,3.861
	c0,0.138,0.026,0.27,0.041,0.403l-9.538,3.876c-0.716-0.916-1.817-1.516-3.069-1.516c-2.16,0-3.91,1.751-3.91,3.91
	c0,0.808,0.245,1.558,0.664,2.181l-8.106,9.551c-0.49-0.224-1.031-0.354-1.604-0.354c-2.148,0-3.89,1.74-3.89,3.889
	c0,1.126,0.486,2.131,1.251,2.842l-23.487,46.224c-0.263-0.054-0.534-0.083-0.813-0.083c-2.209,0-3.999,1.79-3.999,3.998
	c0,1.731,1.105,3.191,2.645,3.748l-2.031,25.291c-0.02,0-0.038-0.006-0.058-0.006c-1.965,0-3.559,1.594-3.559,3.559
	c0,1.35,0.759,2.509,1.864,3.112c0.317,0.278,0.672,0.513,1.069,0.675l-2.294,21.639c-0.338-0.189-0.723-0.307-1.138-0.307
	c-1.291,0-2.337,1.046-2.337,2.336c0,1.291,1.046,2.338,2.337,2.338c0.24,0,0.468-0.047,0.687-0.114l-0.055,0.515
	c-1.213,0.44-2.084,1.592-2.084,2.957c0,0.675,0.215,1.296,0.575,1.809c-1.053,0.604-1.77,1.722-1.782,3.018l-22.324,6.764
	c-0.659-0.993-1.786-1.648-3.067-1.648c-1.704,0-3.124,1.162-3.544,2.734l-34.494,1.065c-0.503-1.584-1.968-2.739-3.718-2.739
	c-0.606,0-1.173,0.149-1.686,0.395l-15.229-17.308c0.377-0.593,0.603-1.291,0.603-2.046c0-0.896-0.321-1.71-0.838-2.361l3.193-4.487
	c0.425,0.154,0.877,0.252,1.355,0.252c2.205,0,3.992-1.788,3.992-3.992c0-0.654-0.172-1.262-0.451-1.807l3.165-2.906
	c-0.002,0.046-0.014,0.089-0.014,0.135c0,1.747,1.416,3.163,3.163,3.163s3.163-1.416,3.163-3.163c0-1.701-1.346-3.078-3.029-3.149
	l6.712-6.163c0.602,0.372,1.304,0.597,2.063,0.597c2.173,0,3.935-1.762,3.935-3.936c0-0.98-0.372-1.866-0.966-2.556
	c1.168-0.086,2.094-1.054,2.094-2.243c0-1.246-1.012-2.26-2.258-2.26c-1.247,0-2.262,1.014-2.262,2.26
	c0,0.337,0.079,0.653,0.211,0.94c-0.245-0.048-0.496-0.076-0.754-0.076c-0.744,0-1.433,0.219-2.026,0.577
	c-0.689-0.991-1.833-1.643-3.13-1.643c-1.868,0-3.416,1.345-3.745,3.116l-10.174,0.998c-0.056-1.32-1.134-2.376-2.468-2.376
	c-1.369,0-2.479,1.11-2.479,2.479c0,0.129,0.019,0.254,0.038,0.378l-6.273,0.614c-0.557-1.368-1.896-2.335-3.465-2.335
	c-2.067,0-3.744,1.676-3.744,3.744c0,2.067,1.677,3.744,3.744,3.744c1.826,0,3.342-1.309,3.673-3.038l7.747-0.759
	c0.241,0.078,0.493,0.131,0.76,0.131c0.438,0,0.844-0.124,1.201-0.323l11.648-1.143c0.563,1.404,1.931,2.399,3.537,2.399
	c0.284,0,0.558-0.036,0.824-0.095l-12.325,11.315c-0.613-0.383-1.331-0.613-2.107-0.613c-2.204,0-3.992,1.787-3.992,3.991
	c0,0.959,0.353,1.828,0.917,2.517l-3.198,4.479c-0.396-0.139-0.816-0.229-1.26-0.229c-1.274,0-2.396,0.63-3.09,1.59
	c-0.407-0.223-0.867-0.361-1.364-0.361c-1.579,0-2.858,1.279-2.858,2.857c0,1.579,1.279,2.858,2.858,2.858
	c0.619,0,1.188-0.201,1.656-0.536c0.698,0.756,1.688,1.236,2.798,1.236c0.582,0,1.128-0.141,1.622-0.373l15.226,17.306
	c-0.396,0.612-0.632,1.338-0.632,2.122c0,2.164,1.754,3.918,3.918,3.918c1.835,0,3.364-1.268,3.79-2.972l34.494-1.065
	c0.494,1.451,1.854,2.504,3.472,2.504c2.033,0,3.683-1.649,3.683-3.681c0-0.011-0.003-0.021-0.003-0.032l22.327-6.736
	c0.636,0.929,1.702,1.539,2.913,1.539c1.033,0,1.955-0.452,2.601-1.16c0.762-0.518,1.263-1.391,1.263-2.381
	c0-0.949-0.465-1.784-1.173-2.309c0.786-0.574,1.303-1.496,1.303-2.545c0-1.368-0.876-2.521-2.093-2.959l2.775-26.185
	c1.792-0.318,3.155-1.875,3.155-3.759c0-1.634-1.03-3.018-2.473-3.565l2.037-25.352c1.843-0.357,3.234-1.976,3.234-3.923
	c0-1.164-0.506-2.203-1.301-2.934l23.493-46.233c0.242,0.047,0.491,0.075,0.747,0.075c2.147,0,3.889-1.741,3.889-3.889
	c0-0.801-0.243-1.545-0.659-2.164l8.107-9.551c0.495,0.226,1.04,0.359,1.62,0.359c2.159,0,3.909-1.75,3.909-3.91
	C211.224,380.98,211.197,380.842,211.181,380.7z"/>
<circle fill="#231F20" cx="13.665" cy="486.416" r="3.77"/>
<path fill="#231F20" d="M254.905,485.145c-1.875,0-3.399,1.427-3.589,3.252c-0.514-0.694-1.333-1.15-2.262-1.15
	c-1.553,0-2.813,1.26-2.813,2.813c-0.001,1.554,1.261,2.813,2.813,2.813c1.355,0,2.488-0.958,2.757-2.232
	c0.636,1.049,1.776,1.758,3.094,1.758c2.003,0,3.627-1.624,3.627-3.627C258.532,486.768,256.908,485.145,254.905,485.145z"/>
<circle fill="#231F20" cx="25.155" cy="428.096" r="3.522"/>
<circle fill="#231F20" cx="245.458" cy="322.046" r="3.462"/>
<circle fill="#231F20" cx="268.417" cy="409.464" r="3.384"/>
<circle fill="#231F20" cx="275.396" cy="448.969" r="3.338"/>
<circle fill="#231F20" cx="94.285" cy="364.417" r="3.225"/>
<path fill="#231F20" d="M192.328,461.09c1.772,0,3.216-1.441,3.216-3.221s-1.442-3.22-3.216-3.22c-1.779,0-3.222,1.44-3.222,3.22
	S190.549,461.09,192.328,461.09z"/>
<circle fill="#231F20" cx="214.545" cy="311.643" r="3.215"/>
<path fill="#231F20" d="M247.957,473.922c0-1.762-1.429-3.191-3.192-3.191c-0.494,0-0.956,0.122-1.373,0.322
	c-1.216,0.107-2.18,1.121-2.18,2.369c0,0.565,0.205,1.078,0.532,1.487c0.418,1.276,1.604,2.205,3.021,2.205
	C246.528,477.114,247.957,475.686,247.957,473.922z"/>
<circle fill="#231F20" cx="56.291" cy="400.592" r="3.18"/>
<path fill="#231F20" d="M201.435,456.441c1.761,0,3.182-1.423,3.182-3.18c0-1.756-1.421-3.182-3.182-3.182
	c-1.753,0-3.177,1.426-3.177,3.182C198.259,455.019,199.682,456.441,201.435,456.441z"/>
<path fill="#231F20" d="M97.222,411.031c-0.35-0.222-0.762-0.355-1.207-0.355c-1.212,0-2.193,0.957-2.249,2.156
	c-0.18,0.396-0.285,0.833-0.285,1.297c0,1.742,1.412,3.156,3.155,3.156s3.156-1.414,3.156-3.156
	C99.793,412.586,98.685,411.307,97.222,411.031z"/>
<circle fill="#231F20" cx="73.299" cy="437.104" r="3.146"/>
<circle fill="#231F20" cx="25.418" cy="420.58" r="3.145"/>
<path fill="#231F20" d="M250.908,335.004c0,1.73,1.403,3.133,3.134,3.133c1.24,0,2.303-0.727,2.811-1.772
	c1.118-0.541,1.896-1.677,1.896-3.004c0-1.847-1.496-3.345-3.342-3.345c-1.549,0-2.835,1.053-3.22,2.475
	C251.415,333.061,250.908,333.97,250.908,335.004z"/>
<path fill="#231F20" d="M212.696,355.334c0,1.726,1.403,3.129,3.128,3.129c1.732,0,3.134-1.403,3.134-3.129
	c0-1.729-1.4-3.129-3.134-3.129C214.098,352.205,212.696,353.604,212.696,355.334z"/>
<circle fill="#231F20" cx="102.998" cy="336.881" r="3.094"/>
<path fill="#231F20" d="M203.12,340.666c1.697,0,3.063-1.373,3.063-3.066c0-1.695-1.366-3.066-3.063-3.066
	c-1.691,0-3.064,1.372-3.064,3.066C200.055,339.293,201.428,340.666,203.12,340.666z"/>
<path fill="#231F20" d="M220.082,328.728c1.676,0,3.036-1.358,3.036-3.038s-1.36-3.038-3.036-3.038c-1.681,0-3.04,1.358-3.04,3.038
	S218.401,328.728,220.082,328.728z"/>
<circle fill="#231F20" cx="18.017" cy="411.877" r="2.998"/>
<path fill="#231F20" d="M264.316,447.785c-1.652,0-2.994,1.34-2.994,2.995c0,1.657,1.342,3.001,2.994,3.001
	c1.658,0,2.998-1.344,2.998-3.001C267.314,449.125,265.974,447.785,264.316,447.785z"/>
<path fill="#231F20" d="M278.189,373.328c-0.258,0-0.505,0.043-0.744,0.105c-0.357-0.229-0.779-0.364-1.235-0.364
	c-1.279,0-2.313,1.037-2.313,2.317c0,1.016,0.659,1.87,1.571,2.181c0.474,1.034,1.512,1.755,2.721,1.755
	c1.658,0,3.002-1.341,3.002-2.999C281.191,374.668,279.847,373.328,278.189,373.328z"/>
<circle fill="#231F20" cx="96.026" cy="560.229" r="2.987"/>
<path fill="#231F20" d="M225.447,365.063c1.65,0,2.984-1.336,2.984-2.981c0-1.645-1.334-2.98-2.984-2.98
	c-1.645,0-2.979,1.336-2.979,2.98C222.469,363.728,223.803,365.063,225.447,365.063z"/>
<path fill="#231F20" d="M280.555,543.756c-1.632,0-2.945,1.317-2.945,2.947c-0.001,1.625,1.313,2.945,2.945,2.945
	c1.622,0,2.946-1.32,2.946-2.945C283.502,545.073,282.177,543.756,280.555,543.756z"/>
<circle fill="#231F20" cx="239.182" cy="546.853" r="2.907"/>
<circle fill="#231F20" cx="27.542" cy="369.235" r="2.897"/>
<path fill="#231F20" d="M203.232,369.576c-0.001,1.584,1.279,2.87,2.865,2.87c1.582,0,2.872-1.286,2.872-2.87
	c0-1.582-1.29-2.869-2.872-2.869C204.511,366.707,203.232,367.994,203.232,369.576z"/>
<circle fill="#231F20" cx="227.992" cy="401.102" r="2.869"/>
<path fill="#231F20" d="M84.073,366.338c1.582,0,2.863-1.283,2.863-2.862c0-1.584-1.281-2.866-2.863-2.866s-2.864,1.282-2.864,2.866
	C81.209,365.055,82.491,366.338,84.073,366.338z"/>
<circle fill="#231F20" cx="57.634" cy="434.542" r="2.858"/>
<path fill="#231F20" d="M42.207,537.578c-1.574,0-2.848,1.27-2.848,2.844c0,1.576,1.274,2.847,2.848,2.847s2.848-1.271,2.848-2.847
	C45.054,538.848,43.781,537.578,42.207,537.578z"/>
<circle fill="#231F20" cx="140.759" cy="448.569" r="2.83"/>
<circle fill="#231F20" cx="59.769" cy="545.753" r="2.831"/>
<path fill="#231F20" d="M57.791,349.1c1.561,0,2.827-1.262,2.827-2.824c0-1.561-1.268-2.824-2.827-2.824
	c-1.559,0-2.823,1.264-2.823,2.824C54.968,347.838,56.232,349.1,57.791,349.1z"/>
<circle fill="#231F20" cx="110.996" cy="364.122" r="2.825"/>
<path fill="#231F20" d="M54.732,520.488c-1.558,0-2.82,1.26-2.82,2.814c0,1.56,1.264,2.822,2.82,2.822
	c1.556,0,2.818-1.263,2.818-2.822C57.551,521.746,56.287,520.488,54.732,520.488z"/>
<path fill="#231F20" d="M194.729,531.939c-1.546,0-2.801,1.25-2.801,2.797c0.001,1.545,1.256,2.799,2.801,2.799
	c1.539,0,2.798-1.254,2.798-2.799C197.527,533.189,196.268,531.939,194.729,531.939z"/>
<path fill="#231F20" d="M184.051,307.533c1.542,0,2.797-1.253,2.797-2.797c0-1.546-1.255-2.798-2.797-2.798
	c-1.549,0-2.801,1.252-2.801,2.798C181.25,306.28,182.502,307.533,184.051,307.533z"/>
<circle fill="#231F20" cx="37.442" cy="424.621" r="2.781"/>
<circle fill="#231F20" cx="258.647" cy="379.18" r="2.77"/>
<circle fill="#231F20" cx="253.253" cy="517.996" r="2.76"/>
<circle fill="#231F20" cx="154.916" cy="417.143" r="2.754"/>
<circle fill="#231F20" cx="145.516" cy="431.083" r="2.743"/>
<circle fill="#231F20" cx="109.515" cy="553.13" r="2.743"/>
<path fill="#231F20" d="M134.869,537.395c-1.504,0-2.721,1.218-2.721,2.719c0,1.508,1.217,2.723,2.721,2.723
	s2.721-1.217,2.721-2.723C137.59,538.612,136.373,537.395,134.869,537.395z"/>
<path fill="#231F20" d="M241.406,406.258c-1.49,0-2.702,1.211-2.702,2.703c0,1.49,1.212,2.699,2.702,2.699
	c1.493,0,2.697-1.209,2.697-2.699C244.103,407.469,242.899,406.258,241.406,406.258z"/>
<circle fill="#231F20" cx="112.584" cy="538.141" r="2.695"/>
<circle fill="#231F20" cx="215.403" cy="410.037" r="2.69"/>
<circle fill="#231F20" cx="15.037" cy="551.612" r="2.626"/>
<circle fill="#231F20" cx="165.708" cy="510.017" r="2.622"/>
<path fill="#231F20" d="M224.562,418.367c-1.451,0-2.618,1.17-2.618,2.613c-0.001,1.447,1.166,2.617,2.618,2.617
	c1.442,0,2.615-1.17,2.615-2.617C227.177,419.537,226.005,418.367,224.562,418.367z"/>
<circle fill="#231F20" cx="199.177" cy="515.371" r="2.584"/>
<path fill="#231F20" d="M201.308,551.556c-1.417,0-2.567,1.149-2.567,2.569c-0.001,1.416,1.15,2.569,2.567,2.569
	c1.425,0,2.572-1.153,2.572-2.569C203.881,552.705,202.733,551.556,201.308,551.556z"/>
<path fill="#231F20" d="M248.966,379.883c-1.412,0-2.56,1.146-2.56,2.563c0,1.411,1.147,2.559,2.56,2.559
	c1.413,0,2.561-1.147,2.561-2.559C251.526,381.029,250.38,379.883,248.966,379.883z"/>
<path fill="#231F20" d="M215.62,492.916c0-1.41-1.146-2.56-2.558-2.56c-1.415,0-2.563,1.147-2.563,2.56
	c0,1.416,1.147,2.56,2.563,2.56C214.472,495.476,215.62,494.33,215.62,492.916z"/>
<path fill="#231F20" d="M277.806,366.875c-1.147,0.252-2.005,1.27-2.005,2.49c0.001,1.41,1.143,2.555,2.556,2.555
	c1.406,0,2.549-1.146,2.549-2.555c0-1.059-0.645-1.967-1.562-2.354c1.137-0.252,1.991-1.264,1.991-2.477
	c0-1.4-1.141-2.537-2.541-2.537c-1.401,0-2.535,1.137-2.535,2.537C276.26,365.587,276.896,366.488,277.806,366.875z"/>
<path fill="#231F20" d="M82.635,439.039c0,1.404,1.136,2.541,2.54,2.541c1.4,0,2.536-1.137,2.536-2.541
	c0-1.399-1.136-2.535-2.536-2.535C83.77,436.504,82.635,437.64,82.635,439.039z"/>
<path fill="#231F20" d="M212.775,481.209c1.401,0,2.536-1.131,2.536-2.531c0-1.399-1.135-2.533-2.536-2.533
	c-1.396,0-2.533,1.134-2.533,2.533C210.242,480.078,211.38,481.209,212.775,481.209z"/>
<circle fill="#231F20" cx="122.541" cy="559.07" r="2.533"/>
<path fill="#231F20" d="M179.713,506.616c0.001-0.03,0.009-0.059,0.009-0.089c0-1.336-1.082-2.421-2.421-2.421
	c-1.334,0-2.416,1.085-2.416,2.421c0,0.922,0.521,1.714,1.28,2.121c-0.01,0.09-0.027,0.177-0.027,0.27
	c0,1.401,1.135,2.535,2.533,2.535s2.533-1.134,2.533-2.535C181.204,507.892,180.591,507.014,179.713,506.616z"/>
<path fill="#231F20" d="M219.615,521.156c-1.389,0-2.52,1.131-2.52,2.526c0.001,1.394,1.132,2.521,2.52,2.521
	c1.394,0,2.523-1.127,2.523-2.521C222.138,522.287,221.008,521.156,219.615,521.156z"/>
<circle fill="#231F20" cx="28.734" cy="549.769" r="2.519"/>
<path fill="#231F20" d="M271.992,301.01c1.393,0,2.515-1.125,2.515-2.512c0-1.388-1.122-2.514-2.515-2.514
	c-1.387,0-2.509,1.125-2.509,2.514C269.483,299.885,270.605,301.01,271.992,301.01z"/>
<circle fill="#231F20" cx="154.457" cy="440.573" r="2.503"/>
<circle fill="#231F20" cx="191.15" cy="524.295" r="2.498"/>
<circle fill="#231F20" cx="173.706" cy="493.752" r="2.498"/>
<path fill="#231F20" d="M243.504,445.104c0-1.377-1.119-2.491-2.493-2.491s-2.493,1.114-2.493,2.491
	c0,1.378,1.119,2.495,2.493,2.495S243.504,446.481,243.504,445.104z"/>
<circle fill="#231F20" cx="17.648" cy="432.088" r="2.494"/>
<circle fill="#231F20" cx="117.689" cy="437.021" r="2.479"/>
<circle fill="#231F20" cx="183.248" cy="323.798" r="2.458"/>
<circle fill="#231F20" cx="153.029" cy="352.252" r="2.448"/>
<path fill="#231F20" d="M249.941,483.438c0-1.354-1.101-2.444-2.453-2.444c-1.352,0-2.447,1.092-2.447,2.444s1.097,2.45,2.447,2.45
	C248.842,485.889,249.941,484.789,249.941,483.438z"/>
<path fill="#231F20" d="M281.961,456.571c-1.343,0-2.435,1.091-2.435,2.438c0,1.346,1.092,2.438,2.435,2.438
	c1.349,0,2.44-1.092,2.44-2.438C284.401,457.66,283.308,456.571,281.961,456.571z"/>
<path fill="#231F20" d="M46.446,479.191c-1.347,0-2.438,1.09-2.438,2.439c0,1.345,1.092,2.438,2.438,2.438s2.438-1.093,2.438-2.438
	C48.884,480.28,47.792,479.191,46.446,479.191z"/>
<circle fill="#231F20" cx="121.378" cy="444.539" r="2.434"/>
<path fill="#231F20" d="M20.229,377.65c0.63,0,1.198-0.245,1.63-0.638c0.092,0.009,0.181,0.028,0.275,0.028
	c1.561,0,2.825-1.266,2.825-2.826c0-1.56-1.265-2.824-2.825-2.824c-1.063,0-1.978,0.594-2.46,1.461
	c-1.075,0.252-1.879,1.212-1.879,2.365C17.796,376.561,18.885,377.65,20.229,377.65z"/>
<path fill="#231F20" d="M276.077,384.101c0-1.341-1.086-2.429-2.427-2.429c-1.346,0-2.432,1.088-2.432,2.429
	c0.001,1.343,1.087,2.429,2.432,2.429C274.991,386.529,276.077,385.443,276.077,384.101z"/>
<circle fill="#231F20" cx="129.854" cy="496.192" r="2.409"/>
<path fill="#231F20" d="M237.241,400.094c0,1.328,1.076,2.406,2.407,2.406c1.335,0,2.41-1.078,2.41-2.406
	c0-0.669-0.271-1.272-0.708-1.709c0.895-0.516,1.503-1.47,1.503-2.575c0-1.649-1.336-2.989-2.988-2.989
	c-1.647,0-2.983,1.34-2.983,2.989c0,1.001,0.497,1.882,1.253,2.423C237.594,398.674,237.241,399.338,237.241,400.094z"/>
<circle fill="#231F20" cx="121.427" cy="537.191" r="2.371"/>
<path fill="#231F20" d="M21.936,363.322c1.311,0,2.369-1.061,2.369-2.367s-1.06-2.365-2.369-2.365c-1.304,0-2.364,1.059-2.364,2.365
	S20.633,363.322,21.936,363.322z"/>
<circle fill="#231F20" cx="206.374" cy="475.057" r="2.352"/>
<circle fill="#231F20" cx="39.106" cy="405.041" r="2.353"/>
<path fill="#231F20" d="M261.584,467.662c-1.288,0-2.336,1.045-2.336,2.336s1.048,2.338,2.336,2.338
	c1.294,0,2.342-1.047,2.342-2.338S262.878,467.662,261.584,467.662z"/>
<circle fill="#231F20" cx="187.656" cy="528.957" r="2.338"/>
<circle fill="#231F20" cx="95.668" cy="340.333" r="2.333"/>
<path fill="#231F20" d="M182.765,436.99c-1.285,0-2.332,1.043-2.332,2.329c0,1.283,1.046,2.328,2.332,2.328
	c1.282,0,2.328-1.045,2.328-2.328C185.094,438.032,184.048,436.99,182.765,436.99z"/>
<circle fill="#231F20" cx="95.474" cy="513.453" r="2.324"/>
<circle fill="#231F20" cx="273.877" cy="337.735" r="2.324"/>
<path fill="#231F20" d="M32.101,521.537c-0.759,0-1.426,0.37-1.849,0.934c-0.448-0.42-1.047-0.682-1.709-0.682
	c-1.385,0-2.508,1.122-2.508,2.508c0,1.385,1.123,2.508,2.508,2.508c0.885,0,1.66-0.462,2.106-1.154
	c0.398,0.323,0.899,0.525,1.453,0.525c1.281,0,2.319-1.039,2.319-2.319S33.383,521.537,32.101,521.537z"/>
<path fill="#231F20" d="M233.849,508.623c-1.276,0-2.311,1.037-2.311,2.316c0,1.283,1.033,2.32,2.311,2.32
	c1.285,0,2.324-1.037,2.324-2.32C236.174,509.66,235.135,508.623,233.849,508.623z"/>
<path fill="#231F20" d="M51.945,465.013c0.46,0.464,1.098,0.751,1.803,0.751c0.986,0,1.832-0.567,2.254-1.389
	c1.135-0.144,2.017-1.102,2.017-2.276c0-0.813-0.423-1.524-1.058-1.935c0.273-0.381,0.438-0.845,0.438-1.35
	c0-1.285-1.043-2.328-2.328-2.328c-1.286,0-2.328,1.043-2.328,2.328c0,0.282,0.058,0.549,0.149,0.799
	c-0.083-0.009-0.164-0.025-0.25-0.025c-1.401,0-2.533,1.133-2.533,2.531c0,0.389,0.093,0.752,0.249,1.08
	C50.502,464.063,51.124,464.756,51.945,465.013z"/>
<circle fill="#231F20" cx="24.248" cy="299.013" r="2.319"/>
<circle fill="#231F20" cx="159.425" cy="328.218" r="2.314"/>
<circle fill="#231F20" cx="77.651" cy="529.107" r="2.311"/>
<path fill="#231F20" d="M147.179,371.686c1.27,0,2.299-1.029,2.299-2.299c0-0.464-0.14-0.893-0.375-1.254
	c-0.177-1.139-1.151-2.014-2.34-2.014c-1.312,0-2.376,1.064-2.376,2.377c0,0.605,0.234,1.152,0.608,1.572
	C145.288,371.003,146.149,371.686,147.179,371.686z"/>
<circle fill="#231F20" cx="115.647" cy="457.539" r="2.301"/>
<circle fill="#231F20" cx="143.892" cy="483.682" r="2.297"/>
<path fill="#231F20" d="M213.808,531.93c-1.269,0-2.292,1.023-2.292,2.293c0,1.271,1.023,2.297,2.292,2.297
	c1.27,0,2.299-1.025,2.299-2.297C216.107,532.953,215.078,531.93,213.808,531.93z"/>
<path fill="#231F20" d="M280.768,521.406c0-1.27-1.022-2.298-2.288-2.298c-1.272,0-2.3,1.028-2.3,2.298
	c0,1.266,1.026,2.292,2.3,2.292C279.746,523.698,280.768,522.672,280.768,521.406z"/>
<circle fill="#231F20" cx="131.963" cy="416.434" r="2.292"/>
<path fill="#231F20" d="M235.389,439.887c0-1.264-1.029-2.289-2.293-2.289c-1.263,0-2.293,1.025-2.293,2.289
	c0,1.267,1.03,2.293,2.293,2.293C234.36,442.18,235.389,441.153,235.389,439.887z"/>
<path fill="#231F20" d="M107.722,477.502c0,1.264,1.025,2.289,2.288,2.289c1.269,0,2.293-1.024,2.293-2.289
	c0-1.267-1.024-2.291-2.293-2.291C108.748,475.211,107.722,476.235,107.722,477.502z"/>
<path fill="#231F20" d="M187.235,477.224c1.267,0,2.292-1.022,2.292-2.285s-1.025-2.285-2.292-2.285
	c-1.262,0-2.282,1.022-2.282,2.285S185.974,477.224,187.235,477.224z"/>
<circle fill="#231F20" cx="148.911" cy="464.108" r="2.281"/>
<circle fill="#231F20" cx="123.625" cy="488.563" r="2.276"/>
<circle fill="#231F20" cx="64.03" cy="513.637" r="2.273"/>
<circle fill="#231F20" cx="280.763" cy="324.374" r="2.273"/>
<circle fill="#231F20" cx="139.194" cy="475.787" r="2.273"/>
<path fill="#231F20" d="M34.75,472.748c-0.987,0-1.819,0.633-2.133,1.513c-0.141-0.027-0.286-0.044-0.435-0.044
	c-1.262,0-2.282,1.021-2.282,2.279c-0.001,1.262,1.021,2.283,2.282,2.283c0.994,0,1.83-0.641,2.142-1.529
	c0.138,0.026,0.28,0.043,0.425,0.043c1.255,0,2.272-1.018,2.272-2.272S36.005,472.748,34.75,472.748z"/>
<circle fill="#231F20" cx="175.043" cy="556.266" r="2.273"/>
<circle fill="#231F20" cx="36.295" cy="411.59" r="2.268"/>
<circle fill="#231F20" cx="151.714" cy="320.728" r="2.269"/>
<circle fill="#231F20" cx="127.667" cy="304.717" r="2.264"/>
<path fill="#231F20" d="M174.543,398.789c0,1.25,1.015,2.264,2.26,2.264c1.249,0,2.262-1.014,2.262-2.264
	c0-1.244-1.013-2.256-2.262-2.256C175.557,396.533,174.543,397.545,174.543,398.789z"/>
<circle fill="#231F20" cx="239.77" cy="493.611" r="2.253"/>
<circle fill="#231F20" cx="253.653" cy="432.557" r="2.254"/>
<path fill="#231F20" d="M125.101,436.854c0.876,0,1.627-0.501,2.001-1.229c0.326,0.16,0.687,0.258,1.074,0.258
	c1.349,0,2.441-1.094,2.441-2.443s-1.094-2.441-2.441-2.441c-1.02,0-1.891,0.623-2.257,1.508c-0.254-0.099-0.528-0.158-0.818-0.158
	c-1.243,0-2.253,1.009-2.253,2.253C122.848,435.848,123.857,436.854,125.101,436.854z"/>
<path fill="#231F20" d="M52.873,386.479c0-2.594-1.424-4.27-4.049-5.693c-2.246-1.234-3.321-2.215-3.321-3.953
	c0-1.74,1.581-3.479,4.238-3.479c1.677-0.032,3.005,0.601,3.669,1.012l0.948-2.151c-0.727-0.506-2.277-1.106-4.365-1.106
	c-3.922,0-7.211,2.437-7.211,6.263c0,2.278,1.517,3.986,4.237,5.473c2.246,1.203,3.132,2.373,3.132,3.986
	c0,2.562-2.215,3.984-4.617,3.984c-1.771,0-3.384-0.568-4.523-1.359l-0.949,2.149c0.886,0.791,2.974,1.455,5.124,1.485
	C49.994,393.088,52.873,390.178,52.873,386.479z"/>
<path fill="#231F20" d="M68.4,393.09c2.402,0,4.333-0.475,5.534-1.012l-0.348-2.15c-1.171,0.602-2.943,0.918-4.556,0.918
	c-4.745,0-6.484-3.163-6.484-6.959c0-3.26,1.265-6.264,3.258-8.131c1.646-1.549,3.892-2.402,6.104-2.402
	c1.897,0,3.417,0.411,4.207,0.885l0.854-2.119c-0.568-0.41-2.276-1.012-4.618-1.012c-3.13,0-5.851,0.98-8.065,2.848
	c-2.91,2.435-4.523,6.262-4.523,10.279C59.762,389.674,63.021,393.09,68.4,393.09z"/>
<path fill="#231F20" d="M88.323,393.09v-0.002h0.029c3.006,0,5.568-1.17,7.466-3.193c2.373-2.53,3.7-6.484,3.7-10.092
	c0-4.553-2.34-8.729-8.065-8.729c-2.783,0-5.504,1.203-7.37,3.101c-2.435,2.595-3.858,6.549-3.858,10.248
	C80.224,388.945,82.819,393.09,88.323,393.09z M91.074,373.289c4.649,0,5.63,3.606,5.63,6.644c0,5.155-3.479,10.944-8.034,10.944
	h-0.032c-4.144,0-5.662-3.195-5.662-6.674C82.975,379.299,86.264,373.289,91.074,373.289z"/>
<path fill="#231F20" d="M108.626,371.739l-4.019,21.005h2.626l1.738-9.301h2.341c2.12,0,3.195,1.203,3.354,4.145
	c0.158,2.468,0.38,4.713,0.507,5.156h2.72c-0.283-0.855-0.441-2.91-0.664-5.885c-0.157-2.184-0.854-3.764-2.371-4.27l0.03-0.063
	c2.689-0.76,5.063-3.067,5.063-6.168c0-1.455-0.603-2.69-1.582-3.512c-1.14-1.044-2.975-1.55-5.093-1.55
	C111.694,371.297,109.923,371.455,108.626,371.739z M117.198,376.705c0,2.53-2.152,4.713-5.474,4.713h-2.341l1.487-7.812
	c0.507-0.127,1.171-0.222,2.215-0.222C115.489,373.385,117.198,374.396,117.198,376.705z"/>
<path fill="#231F20" d="M129.149,384.203c0.663,0.094,1.36,0.157,2.183,0.157c2.404,0,4.807-0.664,6.453-2.056
	c1.392-1.139,2.562-3.163,2.562-5.535c0-1.678-0.537-2.91-1.55-3.828c-1.202-1.139-3.163-1.645-5.219-1.645
	c-1.74,0-3.416,0.189-4.618,0.442l-4.018,21.005h2.594L129.149,384.203z M131.141,373.637c0.476-0.127,1.266-0.223,2.31-0.223
	c2.435,0,4.239,1.014,4.239,3.543c0,3.006-2.405,5.221-6.012,5.221c-0.759,0-1.358-0.032-2.119-0.19L131.141,373.637z"/>
<polygon fill="#231F20" points="148.851,371.422 144.802,392.742 147.427,392.742 151.476,371.422 "/>
<path fill="#231F20" d="M164.633,393.09v-0.002h0.03c3.004,0,5.566-1.17,7.465-3.193c2.373-2.53,3.701-6.484,3.701-10.092
	c0-4.553-2.341-8.729-8.066-8.729c-2.783,0-5.504,1.203-7.371,3.101c-2.435,2.595-3.856,6.549-3.856,10.248
	C156.535,388.945,159.129,393.09,164.633,393.09z M167.384,373.289c4.649,0,5.629,3.606,5.629,6.644
	c0,5.155-3.478,10.944-8.033,10.944h-0.031c-4.145,0-5.662-3.195-5.662-6.674C159.286,379.299,162.575,373.289,167.384,373.289z"/>
</svg>
