<?xml version="1.0" encoding="utf-8"?>
<!-- Generator: Adobe Illustrator 16.0.0, SVG Export Plug-In . SVG Version: 6.00 Build 0)  -->
<!DOCTYPE svg PUBLIC "-//W3C//DTD SVG 1.1//EN" "http://www.w3.org/Graphics/SVG/1.1/DTD/svg11.dtd">
<svg version="1.1" xmlns="http://www.w3.org/2000/svg" xmlns:xlink="http://www.w3.org/1999/xlink" x="0px" y="0px"
	 width="289.439px" height="289.129px" viewBox="0 0 289.439 289.129" enable-background="new 0 0 289.439 289.129"
	 xml:space="preserve">
<g id="Layer_1">
	<line fill="none" x1="258.941" y1="40.997" x2="238.909" y2="34.982"/>
	<circle fill="#231F20" cx="204.095" cy="95.061" r="3.048"/>
	<path fill="#231F20" d="M204.095,95.061"/>
	<path fill="#FFFFFF" d="M204.095,95.061"/>
	<circle fill="#231F20" cx="204.095" cy="95.061" r="3.91"/>
	<path fill="#231F20" d="M204.095,95.061"/>
	<circle fill="#231F20" cx="87.901" cy="192.089" r="3.815"/>
	<path fill="#231F20" d="M87.901,192.089"/>
	<circle fill="#231F20" cx="86.893" cy="243.969" r="3.918"/>
	<path fill="#231F20" d="M86.893,243.969"/>
	<circle fill="#231F20" cx="164.2" cy="163.307" r="3.999"/>
	<path fill="#231F20" d="M164.2,163.307"/>
	<circle fill="#231F20" cx="263.912" cy="65.415" r="3.999"/>
	<path fill="#231F20" d="M263.912,65.415"/>
	<circle fill="#231F20" cx="74.293" cy="210.503" r="3.992"/>
	<path fill="#231F20" d="M74.293,210.502"/>
	<circle fill="#231F20" cx="255.609" cy="39.999" r="3.978"/>
	<path fill="#231F20" d="M255.609,39.998"/>
	<circle fill="#231F20" cx="93.057" cy="193.274" r="3.935"/>
	<path fill="#231F20" d="M93.057,193.273"/>
	<circle fill="#231F20" cx="191.138" cy="110.326" r="3.889"/>
	<path fill="#231F20" d="M191.138,110.326"/>
	<circle fill="#231F20" cx="264.019" cy="96.073" r="3.868"/>
	<path fill="#231F20" d="M264.019,96.072"/>
	<circle fill="#231F20" cx="220.523" cy="88.386" r="3.861"/>
	<path fill="#231F20" d="M220.523,88.386"/>
	<circle fill="#231F20" cx="161.575" cy="196.147" r="3.825"/>
	<path fill="#231F20" d="M161.575,196.147"/>
	<circle fill="#231F20" cx="66.76" cy="221.092" r="3.822"/>
	<path fill="#231F20" d="M66.76,221.092"/>
	<circle fill="#231F20" cx="10.446" cy="200.351" r="3.77"/>
	<path fill="#231F20" d="M10.446,200.352"/>
	<circle fill="#231F20" cx="59.335" cy="194.892" r="3.744"/>
	<path fill="#231F20" d="M59.335,194.892"/>
	<path fill="#231F20" d="M100.292,84.836"/>
	<path fill="#231F20" d="M128.649,246.354c2.033,0,3.683-1.65,3.683-3.681c0-2.036-1.649-3.683-3.683-3.683
		s-3.682,1.646-3.682,3.683C124.968,244.703,126.616,246.354,128.649,246.354z"/>
	<path fill="#231F20" d="M128.649,242.673"/>
	<circle fill="#231F20" cx="251.685" cy="202.707" r="3.627"/>
	<path fill="#231F20" d="M251.685,202.708"/>
	<circle fill="#231F20" cx="160.757" cy="195.899" r="3.559"/>
	<path fill="#231F20" d="M160.757,195.899"/>
	<circle fill="#231F20" cx="157.569" cy="233.911" r="3.532"/>
	<path fill="#231F20" d="M157.569,233.909"/>
	<circle fill="#231F20" cx="21.935" cy="142.032" r="3.522"/>
	<path fill="#231F20" d="M21.935,142.031"/>
	<circle fill="#231F20" cx="242.238" cy="35.982" r="3.462"/>
	<path fill="#231F20" d="M242.238,35.982"/>
	<path fill="#231F20" d="M114.323,97.886"/>
	<circle fill="#231F20" cx="265.197" cy="123.4" r="3.384"/>
	<path fill="#231F20" d="M265.197,123.399"/>
	<path fill="#231F20" d="M252.186,50.642c1.846,0,3.342-1.498,3.342-3.346c0-1.847-1.496-3.345-3.342-3.345
		c-1.852,0-3.348,1.498-3.348,3.345C248.839,49.144,250.335,50.642,252.186,50.642z"/>
	<path fill="#231F20" d="M252.185,47.296"/>
	<circle fill="#231F20" cx="272.176" cy="162.904" r="3.338"/>
	<path fill="#231F20" d="M272.176,162.904"/>
	<circle fill="#231F20" cx="91.065" cy="78.352" r="3.225"/>
	<path fill="#231F20" d="M91.065,78.352"/>
	<path fill="#231F20" d="M189.108,175.025c1.773,0,3.216-1.441,3.216-3.22s-1.442-3.22-3.216-3.22c-1.779,0-3.222,1.441-3.222,3.22
		S187.329,175.025,189.108,175.025z"/>
	<path fill="#231F20" d="M189.107,171.806"/>
	<circle fill="#231F20" cx="211.325" cy="25.579" r="3.215"/>
	<path fill="#231F20" d="M211.324,25.579"/>
	<path fill="#FFFFFF" d="M211.325,27.731c1.185,0,2.146-0.964,2.146-2.152c0-1.188-0.962-2.15-2.146-2.15
		c-1.19,0-2.152,0.963-2.152,2.15C209.173,26.767,210.135,27.731,211.325,27.731z"/>
	<path fill="#FFFFFF" d="M211.324,25.579"/>
	<circle fill="#231F20" cx="241.545" cy="187.858" r="3.192"/>
	<path fill="#231F20" d="M241.545,187.858"/>
	<circle fill="#231F20" cx="53.071" cy="114.528" r="3.18"/>
	<path fill="#231F20" d="M53.071,114.529"/>
	<circle fill="#FFFFFF" cx="53.071" cy="114.529" r="2.098"/>
	<path fill="#FFFFFF" d="M53.071,114.529"/>
	<path fill="#231F20" d="M198.216,170.377c1.76,0,3.181-1.423,3.181-3.18c0-1.756-1.421-3.182-3.181-3.182
		c-1.753,0-3.177,1.426-3.177,3.182C195.039,168.954,196.463,170.377,198.216,170.377z"/>
	<path fill="#231F20" d="M198.217,167.197"/>
	<circle fill="#231F20" cx="84.148" cy="205.925" r="3.163"/>
	<path fill="#231F20" d="M84.148,205.925"/>
	<circle fill="#231F20" cx="93.417" cy="128.064" r="3.156"/>
	<path fill="#231F20" d="M93.417,128.065"/>
	<circle fill="#231F20" cx="158.405" cy="229.049" r="3.157"/>
	<path fill="#231F20" d="M158.405,229.049"/>
	<path fill="#231F20" d="M203.142,9.195"/>
	<circle fill="#231F20" cx="70.079" cy="151.04" r="3.145"/>
	<path fill="#231F20" d="M70.079,151.039"/>
	<circle fill="#FFFFFF" cx="70.079" cy="151.04" r="2.047"/>
	<path fill="#FFFFFF" d="M70.079,151.039"/>
	<circle fill="#231F20" cx="22.198" cy="134.516" r="3.145"/>
	<path fill="#231F20" d="M22.198,134.517"/>
	<circle fill="#FFFFFF" cx="22.198" cy="134.516" r="2.047"/>
	<path fill="#FFFFFF" d="M22.198,134.517"/>
	<circle fill="#231F20" cx="250.822" cy="48.939" r="3.134"/>
	<path fill="#231F20" d="M250.822,48.939"/>
	<path fill="#231F20" d="M212.604,72.398c1.733,0,3.134-1.403,3.134-3.129c0-1.729-1.4-3.128-3.134-3.128
		c-1.725,0-3.128,1.399-3.128,3.128C209.476,70.995,210.88,72.398,212.604,72.398z"/>
	<path fill="#231F20" d="M212.605,69.27"/>
	<circle fill="#231F20" cx="99.778" cy="50.816" r="3.094"/>
	<path fill="#231F20" d="M99.778,50.816"/>
	<path fill="#231F20" d="M199.9,54.601c1.697,0,3.064-1.373,3.064-3.066c0-1.695-1.367-3.066-3.064-3.066
		c-1.691,0-3.064,1.372-3.064,3.066C196.836,53.228,198.209,54.601,199.9,54.601z"/>
	<path fill="#231F20" d="M199.9,51.534"/>
	<path fill="#231F20" d="M216.862,42.663c1.676,0,3.036-1.359,3.036-3.038s-1.36-3.038-3.036-3.038c-1.681,0-3.04,1.359-3.04,3.038
		S215.181,42.663,216.862,42.663z"/>
	<path fill="#231F20" d="M216.861,39.625"/>
	<path fill="#231F20" d="M35.71,277.361"/>
	<circle fill="#231F20" cx="14.798" cy="125.812" r="2.998"/>
	<path fill="#231F20" d="M14.798,125.813"/>
	<path fill="#231F20" d="M261.096,167.717c1.659,0,2.998-1.344,2.998-3.001c0-1.656-1.339-2.995-2.998-2.995
		c-1.652,0-2.994,1.339-2.994,2.995C258.102,166.373,259.444,167.717,261.096,167.717z"/>
	<path fill="#231F20" d="M261.097,164.717"/>
	<path fill="#231F20" d="M274.969,93.258c1.659,0,3.002-1.341,3.002-2.999c0-1.655-1.343-2.995-3.002-2.995
		c-1.652,0-2.998,1.34-2.998,2.995C271.971,91.917,273.317,93.258,274.969,93.258z"/>
	<path fill="#231F20" d="M274.97,90.26"/>
	<path fill="#231F20" d="M236.645,112.729c1.653,0,2.989-1.336,2.989-2.984c0-1.65-1.336-2.989-2.989-2.989
		c-1.647,0-2.983,1.339-2.983,2.989C233.662,111.393,234.998,112.729,236.645,112.729z"/>
	<path fill="#231F20" d="M236.646,109.743"/>
	<circle fill="#231F20" cx="92.806" cy="274.165" r="2.987"/>
	<path fill="#231F20" d="M92.806,274.165"/>
	<path fill="#231F20" d="M222.227,78.999c1.651,0,2.985-1.336,2.985-2.981s-1.334-2.981-2.985-2.981
		c-1.644,0-2.978,1.336-2.978,2.981S220.584,78.999,222.227,78.999z"/>
	<path fill="#231F20" d="M222.228,76.018"/>
	<path fill="#231F20" d="M279.738,94.504"/>
	<path fill="#231F20" d="M277.336,263.584c1.622,0,2.946-1.32,2.946-2.946c0-1.629-1.324-2.946-2.946-2.946
		c-1.632,0-2.946,1.317-2.946,2.946C274.389,262.264,275.704,263.584,277.336,263.584z"/>
	<path fill="#231F20" d="M277.336,260.638"/>
	<path fill="#231F20" d="M235.963,263.696c1.606,0,2.908-1.301,2.908-2.905c0-1.608-1.302-2.909-2.908-2.909
		s-2.908,1.301-2.908,2.909C233.054,262.396,234.356,263.696,235.963,263.696z"/>
	<path fill="#231F20" d="M235.963,260.79"/>
	<path fill="#231F20" d="M24.324,86.069c1.6,0,2.895-1.297,2.895-2.898c0-1.598-1.295-2.895-2.895-2.895
		c-1.602,0-2.898,1.297-2.898,2.895C21.426,84.772,22.722,86.069,24.324,86.069z"/>
	<path fill="#231F20" d="M24.323,83.172"/>
	<circle fill="#231F20" cx="158.552" cy="233.902" r="2.88"/>
	<path fill="#231F20" d="M158.553,233.901"/>
	<path fill="#231F20" d="M202.878,86.382c1.582,0,2.872-1.286,2.872-2.87c0-1.583-1.29-2.869-2.872-2.869
		c-1.586,0-2.866,1.286-2.866,2.869C200.011,85.096,201.292,86.382,202.878,86.382z"/>
	<path fill="#231F20" d="M202.879,83.512"/>
	<path fill="#231F20" d="M224.772,117.906c1.585,0,2.866-1.285,2.866-2.871c0-1.583-1.281-2.866-2.866-2.866
		c-1.586,0-2.87,1.283-2.87,2.866C221.902,116.621,223.186,117.906,224.772,117.906z"/>
	<path fill="#231F20" d="M224.771,115.036"/>
	<path fill="#231F20" d="M80.853,80.273c1.582,0,2.864-1.283,2.864-2.862c0-1.584-1.282-2.866-2.864-2.866s-2.864,1.282-2.864,2.866
		C77.989,78.99,79.271,80.273,80.853,80.273z"/>
	<path fill="#231F20" d="M80.853,77.41"/>
	<circle fill="#231F20" cx="54.414" cy="148.477" r="2.858"/>
	<path fill="#231F20" d="M54.414,148.476"/>
	<circle fill="#231F20" cx="62.305" cy="221.356" r="2.858"/>
	<path fill="#231F20" d="M62.305,221.355"/>
	<path fill="#231F20" d="M38.987,257.204c1.573,0,2.848-1.271,2.848-2.846c0-1.575-1.274-2.845-2.848-2.845s-2.848,1.27-2.848,2.845
		C36.139,255.933,37.414,257.204,38.987,257.204z"/>
	<path fill="#231F20" d="M38.987,254.358"/>
	<circle fill="#231F20" cx="137.539" cy="162.505" r="2.83"/>
	<path fill="#231F20" d="M137.54,162.506"/>
	<circle fill="#231F20" cx="56.55" cy="259.688" r="2.831"/>
	<path fill="#231F20" d="M56.55,259.688"/>
	<path fill="#231F20" d="M54.571,63.035c1.561,0,2.827-1.262,2.827-2.824c0-1.561-1.267-2.824-2.827-2.824
		c-1.559,0-2.823,1.263-2.823,2.824C51.748,61.773,53.012,63.035,54.571,63.035z"/>
	<path fill="#231F20" d="M54.572,60.211"/>
	<circle fill="#231F20" cx="18.915" cy="88.151" r="2.825"/>
	<path fill="#231F20" d="M18.915,88.151"/>
	<circle fill="#231F20" cx="107.776" cy="78.058" r="2.825"/>
	<path fill="#231F20" d="M107.776,78.057"/>
	<path fill="#231F20" d="M51.512,240.06c1.556,0,2.819-1.262,2.819-2.821c0-1.557-1.264-2.815-2.819-2.815
		c-1.557,0-2.82,1.259-2.82,2.815C48.692,238.798,49.956,240.06,51.512,240.06z"/>
	<path fill="#231F20" d="M51.512,237.239"/>
	<path fill="#231F20" d="M245.835,206.809c1.554,0,2.818-1.26,2.818-2.814c0-1.554-1.265-2.813-2.818-2.813
		c-1.553,0-2.814,1.26-2.814,2.813C243.02,205.549,244.282,206.809,245.835,206.809z"/>
	<path fill="#231F20" d="M245.836,203.994"/>
	<path fill="#231F20" d="M191.51,251.47c1.539,0,2.797-1.253,2.797-2.798c0-1.547-1.258-2.797-2.797-2.797
		c-1.546,0-2.801,1.25-2.801,2.797C188.71,250.217,189.965,251.47,191.51,251.47z"/>
	<path fill="#231F20" d="M191.51,248.672"/>
	<path fill="#231F20" d="M180.831,21.469c1.542,0,2.797-1.253,2.797-2.797c0-1.546-1.255-2.798-2.797-2.798
		c-1.549,0-2.801,1.252-2.801,2.798C178.03,20.216,179.282,21.469,180.831,21.469z"/>
	<path fill="#231F20" d="M180.83,18.672"/>
	<circle fill="#231F20" cx="34.222" cy="138.556" r="2.781"/>
	<path fill="#231F20" d="M34.221,138.556"/>
	<circle fill="#231F20" cx="255.427" cy="93.115" r="2.77"/>
	<path fill="#231F20" d="M255.426,93.115"/>
	<circle fill="#231F20" cx="250.033" cy="231.932" r="2.76"/>
	<path fill="#231F20" d="M250.033,231.932"/>
	<circle fill="#231F20" cx="151.696" cy="131.078" r="2.754"/>
	<path fill="#231F20" d="M151.696,131.078"/>
	<circle fill="#FFFFFF" cx="151.695" cy="131.077" r="1.474"/>
	<path fill="#FFFFFF" d="M151.696,131.078"/>
	<circle fill="#231F20" cx="142.297" cy="145.018" r="2.743"/>
	<path fill="#231F20" d="M142.297,145.018"/>
	<circle fill="#231F20" cx="106.296" cy="267.066" r="2.743"/>
	<path fill="#231F20" d="M106.296,267.065"/>
	<path fill="#231F20" d="M280.281,45.483"/>
	<path fill="#231F20" d="M131.649,256.772c1.504,0,2.721-1.217,2.721-2.723c0-1.501-1.217-2.719-2.721-2.719
		s-2.721,1.218-2.721,2.719C128.928,255.556,130.145,256.772,131.649,256.772z"/>
	<path fill="#231F20" d="M131.649,254.051"/>
	<path fill="#231F20" d="M238.186,125.595c1.493,0,2.698-1.208,2.698-2.698c0-1.492-1.205-2.703-2.698-2.703
		c-1.49,0-2.702,1.211-2.702,2.703C235.484,124.387,236.696,125.595,238.186,125.595z"/>
	<path fill="#231F20" d="M238.185,122.896"/>
	<circle fill="#231F20" cx="109.364" cy="252.076" r="2.695"/>
	<path fill="#231F20" d="M109.364,252.077"/>
	<circle fill="#231F20" cx="212.183" cy="123.972" r="2.69"/>
	<path fill="#231F20" d="M212.183,123.972"/>
	<path fill="#231F20" d="M220.615,278.97"/>
	<circle fill="#231F20" cx="11.817" cy="265.548" r="2.626"/>
	<path fill="#231F20" d="M11.817,265.55"/>
	<circle fill="#231F20" cx="162.488" cy="223.952" r="2.622"/>
	<path fill="#231F20" d="M162.488,223.952"/>
	<path fill="#231F20" d="M221.343,137.533c1.442,0,2.615-1.17,2.615-2.617c0-1.443-1.173-2.613-2.615-2.613
		c-1.452,0-2.619,1.17-2.619,2.613C218.723,136.363,219.89,137.533,221.343,137.533z"/>
	<path fill="#231F20" d="M221.342,134.917"/>
	<path fill="#231F20" d="M99.779,112.423"/>
	<circle fill="#231F20" cx="195.957" cy="229.307" r="2.584"/>
	<path fill="#231F20" d="M195.957,229.308"/>
	<path fill="#231F20" d="M198.089,270.63c1.424,0,2.572-1.153,2.572-2.57c0-1.42-1.148-2.569-2.572-2.569
		c-1.417,0-2.568,1.149-2.568,2.569C195.52,269.477,196.672,270.63,198.089,270.63z"/>
	<path fill="#231F20" d="M198.09,268.06"/>
	<path fill="#231F20" d="M245.746,98.939c1.413,0,2.56-1.147,2.56-2.558c0-1.416-1.146-2.562-2.56-2.562
		c-1.412,0-2.56,1.146-2.56,2.562C243.186,97.792,244.334,98.939,245.746,98.939z"/>
	<path fill="#231F20" d="M245.746,96.381"/>
	<path fill="#231F20" d="M209.843,209.411c1.41,0,2.557-1.145,2.557-2.56c0-1.41-1.146-2.559-2.557-2.559
		c-1.416,0-2.563,1.148-2.563,2.559C207.28,208.267,208.427,209.411,209.843,209.411z"/>
	<path fill="#231F20" d="M209.842,206.852"/>
	<path fill="#231F20" d="M275.137,85.855c1.407,0,2.549-1.145,2.549-2.554c0-1.41-1.142-2.554-2.549-2.554
		c-1.413,0-2.555,1.144-2.555,2.554C272.583,84.711,273.724,85.855,275.137,85.855z"/>
	<path fill="#231F20" d="M275.136,83.302"/>
	<circle fill="#231F20" cx="50.528" cy="177.156" r="2.543"/>
	<path fill="#231F20" d="M50.528,177.155"/>
	<path fill="#231F20" d="M275.575,81.01c1.4,0,2.541-1.136,2.541-2.54c0-1.4-1.141-2.536-2.541-2.536
		c-1.401,0-2.535,1.136-2.535,2.536C273.04,79.874,274.174,81.01,275.575,81.01z"/>
	<path fill="#231F20" d="M275.576,78.471"/>
	<path fill="#231F20" d="M81.955,155.515c1.4,0,2.536-1.136,2.536-2.54c0-1.4-1.136-2.536-2.536-2.536
		c-1.404,0-2.54,1.136-2.54,2.536C79.415,154.379,80.551,155.515,81.955,155.515z"/>
	<path fill="#231F20" d="M81.954,152.976"/>
	<path fill="#231F20" d="M209.555,195.145c1.402,0,2.537-1.132,2.537-2.532c0-1.399-1.135-2.533-2.537-2.533
		c-1.396,0-2.533,1.134-2.533,2.533C207.022,194.013,208.16,195.145,209.555,195.145z"/>
	<path fill="#231F20" d="M209.556,192.612"/>
	<path fill="#231F20" d="M49.422,178.588c1.398,0,2.53-1.132,2.53-2.533c0-1.398-1.132-2.532-2.53-2.532
		c-1.402,0-2.534,1.134-2.534,2.532C46.887,177.456,48.019,178.588,49.422,178.588z"/>
	<path fill="#231F20" d="M49.421,176.055"/>
	<circle fill="#231F20" cx="119.321" cy="273.005" r="2.533"/>
	<path fill="#231F20" d="M119.321,273.006"/>
	<path fill="#231F20" d="M175.451,225.388c1.398,0,2.533-1.133,2.533-2.535c0-1.398-1.135-2.531-2.533-2.531
		s-2.533,1.133-2.533,2.531C172.918,224.255,174.052,225.388,175.451,225.388z"/>
	<path fill="#231F20" d="M175.451,222.854"/>
	<path fill="#231F20" d="M216.395,240.139c1.394,0,2.524-1.128,2.524-2.521c0-1.396-1.131-2.526-2.524-2.526
		c-1.388,0-2.519,1.131-2.519,2.526C213.877,239.011,215.008,240.139,216.395,240.139z"/>
	<path fill="#231F20" d="M216.396,237.616"/>
	<circle fill="#231F20" cx="265.613" cy="84.967" r="2.524"/>
	<path fill="#231F20" d="M265.613,84.967"/>
	<circle fill="#231F20" cx="25.514" cy="263.704" r="2.518"/>
	<path fill="#231F20" d="M25.514,263.705"/>
	<path fill="#231F20" d="M268.772,14.946c1.393,0,2.515-1.125,2.515-2.512c0-1.388-1.122-2.514-2.515-2.514
		c-1.387,0-2.509,1.125-2.509,2.514C266.263,13.82,267.385,14.946,268.772,14.946z"/>
	<path fill="#231F20" d="M268.773,12.434"/>
	<circle fill="#231F20" cx="25.323" cy="238.232" r="2.508"/>
	<path fill="#231F20" d="M25.323,238.232"/>
	<circle fill="#231F20" cx="151.237" cy="154.509" r="2.503"/>
	<path fill="#231F20" d="M151.237,154.509"/>
	<circle fill="#231F20" cx="187.93" cy="238.231" r="2.498"/>
	<path fill="#231F20" d="M187.929,238.231"/>
	<circle fill="#231F20" cx="170.486" cy="207.687" r="2.498"/>
	<path fill="#231F20" d="M170.486,207.686"/>
	<path fill="#231F20" d="M237.791,161.534c1.374,0,2.493-1.117,2.493-2.495c0-1.377-1.119-2.491-2.493-2.491
		s-2.493,1.114-2.493,2.491C235.298,160.417,236.417,161.534,237.791,161.534z"/>
	<path fill="#231F20" d="M237.791,159.04"/>
	<circle fill="#231F20" cx="14.428" cy="146.023" r="2.494"/>
	<path fill="#231F20" d="M14.428,146.023"/>
	<circle fill="#231F20" cx="114.469" cy="150.957" r="2.478"/>
	<path fill="#231F20" d="M114.469,150.956"/>
	<circle fill="#231F20" cx="71.514" cy="192.491" r="2.479"/>
	<path fill="#231F20" d="M71.514,192.491"/>
	<circle fill="#231F20" cx="180.028" cy="37.734" r="2.458"/>
	<path fill="#231F20" d="M180.029,37.734"/>
	<circle fill="#231F20" cx="149.809" cy="66.188" r="2.448"/>
	<path fill="#231F20" d="M149.809,66.187"/>
	<path fill="#231F20" d="M244.268,199.824c1.354,0,2.453-1.099,2.453-2.45c0-1.354-1.1-2.445-2.453-2.445
		c-1.351,0-2.447,1.092-2.447,2.445C241.821,198.726,242.918,199.824,244.268,199.824z"/>
	<path fill="#231F20" d="M244.269,197.375"/>
	<path fill="#231F20" d="M124.957,149.818c1.348,0,2.441-1.094,2.441-2.443c0-1.349-1.094-2.442-2.441-2.442
		c-1.352,0-2.445,1.094-2.445,2.442C122.511,148.725,123.605,149.818,124.957,149.818z"/>
	<path fill="#231F20" d="M124.956,147.375"/>
	<circle fill="#FFFFFF" cx="124.956" cy="147.376" r="1.037"/>
	<path fill="#FFFFFF" d="M124.956,147.375"/>
	<path fill="#231F20" d="M278.741,175.383c1.349,0,2.44-1.092,2.44-2.438c0-1.349-1.092-2.438-2.44-2.438
		c-1.343,0-2.435,1.09-2.435,2.438C276.306,174.291,277.398,175.383,278.741,175.383z"/>
	<path fill="#231F20" d="M278.742,172.945"/>
	<path fill="#231F20" d="M43.226,198.004c1.347,0,2.438-1.093,2.438-2.437c0-1.351-1.092-2.44-2.438-2.44s-2.438,1.09-2.438,2.44
		C40.788,196.911,41.88,198.004,43.226,198.004z"/>
	<path fill="#231F20" d="M43.226,195.566"/>
	<circle fill="#231F20" cx="118.158" cy="158.475" r="2.434"/>
	<path fill="#231F20" d="M118.157,158.476"/>
	<circle fill="#231F20" cx="17.01" cy="89.152" r="2.434"/>
	<path fill="#231F20" d="M17.01,89.152"/>
	<path fill="#231F20" d="M270.43,100.465c1.341,0,2.427-1.086,2.427-2.429c0-1.341-1.086-2.429-2.427-2.429
		c-1.345,0-2.431,1.088-2.431,2.429C268,99.379,269.086,100.465,270.43,100.465z"/>
	<path fill="#231F20" d="M270.429,98.036"/>
	<path fill="#231F20" d="M174.081,222.88c1.339,0,2.421-1.081,2.421-2.417s-1.082-2.421-2.421-2.421
		c-1.334,0-2.416,1.085-2.416,2.421S172.747,222.88,174.081,222.88z"/>
	<path fill="#231F20" d="M174.082,220.462"/>
	<circle fill="#231F20" cx="126.635" cy="210.127" r="2.409"/>
	<path fill="#231F20" d="M126.635,210.127"/>
	<path fill="#231F20" d="M236.428,116.436c1.335,0,2.411-1.078,2.411-2.407c0-1.333-1.076-2.411-2.411-2.411
		c-1.331,0-2.407,1.078-2.407,2.411C234.021,115.357,235.097,116.436,236.428,116.436z"/>
	<path fill="#231F20" d="M236.429,114.027"/>
	<path fill="#231F20" d="M240.38,189.748c1.324,0,2.394-1.071,2.394-2.391c0-1.318-1.069-2.39-2.394-2.39
		c-1.315,0-2.388,1.071-2.388,2.39C237.992,188.677,239.064,189.748,240.38,189.748z"/>
	<path fill="#231F20" d="M240.381,187.357"/>
	<circle fill="#231F20" cx="143.544" cy="82.431" r="2.376"/>
	<path fill="#231F20" d="M143.544,82.432"/>
	<circle fill="#231F20" cx="118.208" cy="251.127" r="2.371"/>
	<path fill="#231F20" d="M118.207,251.127"/>
	<path fill="#231F20" d="M18.717,77.258c1.31,0,2.369-1.06,2.369-2.367s-1.06-2.366-2.369-2.366c-1.304,0-2.365,1.059-2.365,2.366
		S17.413,77.258,18.717,77.258z"/>
	<path fill="#231F20" d="M18.718,74.891"/>
	<circle fill="#231F20" cx="203.154" cy="188.992" r="2.351"/>
	<path fill="#231F20" d="M203.154,188.99"/>
	<path fill="#231F20" d="M35.886,121.329c1.299,0,2.354-1.056,2.354-2.354s-1.056-2.351-2.354-2.351
		c-1.297,0-2.351,1.052-2.351,2.351S34.59,121.329,35.886,121.329z"/>
	<path fill="#231F20" d="M35.887,118.976"/>
	<path fill="#231F20" d="M84.317,278.757"/>
	<path fill="#231F20" d="M258.364,186.271c1.294,0,2.342-1.047,2.342-2.337c0-1.291-1.048-2.337-2.342-2.337
		c-1.288,0-2.336,1.046-2.336,2.337C256.028,185.225,257.076,186.271,258.364,186.271z"/>
	<path fill="#231F20" d="M258.365,183.935"/>
	<circle fill="#231F20" cx="156.7" cy="223.354" r="2.337"/>
	<path fill="#231F20" d="M156.7,223.355"/>
	<circle fill="#231F20" cx="184.436" cy="242.892" r="2.338"/>
	<path fill="#231F20" d="M184.437,242.892"/>
	<circle fill="#231F20" cx="92.448" cy="54.269" r="2.333"/>
	<path fill="#231F20" d="M92.448,54.27"/>
	<path fill="#231F20" d="M179.546,155.583c1.282,0,2.328-1.045,2.328-2.328c0-1.287-1.046-2.329-2.328-2.329
		c-1.286,0-2.332,1.042-2.332,2.329C177.214,154.538,178.26,155.583,179.546,155.583z"/>
	<path fill="#231F20" d="M179.545,153.255"/>
	<circle fill="#231F20" cx="51.85" cy="172.75" r="2.328"/>
	<path fill="#231F20" d="M51.85,172.749"/>
	<circle fill="#231F20" cx="157.816" cy="234.937" r="2.323"/>
	<path fill="#231F20" d="M157.816,234.937"/>
	<circle fill="#231F20" cx="92.254" cy="227.388" r="2.324"/>
	<path fill="#231F20" d="M92.254,227.389"/>
	<circle fill="#231F20" cx="270.657" cy="51.671" r="2.324"/>
	<path fill="#231F20" d="M270.658,51.672"/>
	<path fill="#231F20" d="M246.278,75.595c1.284,0,2.321-1.037,2.321-2.316c0-1.281-1.037-2.321-2.321-2.321
		c-1.278,0-2.315,1.04-2.315,2.321C243.963,74.558,245,75.595,246.278,75.595z"/>
	<path fill="#231F20" d="M246.279,73.277"/>
	<circle fill="#231F20" cx="28.882" cy="237.792" r="2.319"/>
	<path fill="#231F20" d="M28.882,237.792"/>
	<path fill="#231F20" d="M230.63,227.196c1.285,0,2.324-1.038,2.324-2.321c0-1.279-1.039-2.317-2.324-2.317
		c-1.277,0-2.311,1.038-2.311,2.317C228.319,226.158,229.352,227.196,230.63,227.196z"/>
	<path fill="#231F20" d="M230.633,224.876"/>
	<path fill="#231F20" d="M49.417,179.065c1.281,0,2.318-1.035,2.318-2.318c0-1.281-1.037-2.318-2.318-2.318
		s-2.319,1.037-2.319,2.318C47.097,178.03,48.135,179.065,49.417,179.065z"/>
	<path fill="#231F20" d="M49.417,176.747"/>
	<circle fill="#231F20" cx="21.028" cy="12.948" r="2.319"/>
	<path fill="#231F20" d="M21.028,12.948"/>
	<path fill="#231F20" d="M272.99,91.635c1.278,0,2.313-1.037,2.313-2.313c0-1.28-1.034-2.317-2.313-2.317s-2.313,1.037-2.313,2.317
		C270.677,90.598,271.712,91.635,272.99,91.635z"/>
	<path fill="#231F20" d="M272.99,89.321"/>
	<circle fill="#231F20" cx="156.205" cy="42.154" r="2.314"/>
	<path fill="#231F20" d="M156.206,42.154"/>
	<circle fill="#231F20" cx="74.431" cy="243.043" r="2.31"/>
	<path fill="#231F20" d="M74.432,243.043"/>
	<circle fill="#231F20" cx="52.493" cy="176.034" r="2.306"/>
	<path fill="#231F20" d="M52.493,176.034"/>
	<path fill="#231F20" d="M251.582,75.292c1.268,0,2.301-1.029,2.301-2.299c0-1.273-1.033-2.303-2.301-2.303
		c-1.274,0-2.3,1.029-2.3,2.303C249.282,74.263,250.307,75.292,251.582,75.292z"/>
	<path fill="#231F20" d="M251.582,72.992"/>
	<circle fill="#231F20" cx="143.96" cy="83.322" r="2.299"/>
	<path fill="#231F20" d="M143.96,83.321"/>
	<circle fill="#231F20" cx="112.427" cy="171.474" r="2.301"/>
	<path fill="#231F20" d="M112.427,171.474"/>
	<path fill="#231F20" d="M140.673,199.915c1.266,0,2.295-1.03,2.295-2.297s-1.029-2.297-2.295-2.297
		c-1.271,0-2.296,1.03-2.296,2.297S139.401,199.915,140.673,199.915z"/>
	<path fill="#231F20" d="M140.673,197.618"/>
	<path fill="#231F20" d="M210.589,250.455c1.269,0,2.298-1.026,2.298-2.297c0-1.269-1.029-2.293-2.298-2.293
		s-2.292,1.024-2.292,2.293C208.297,249.429,209.32,250.455,210.589,250.455z"/>
	<path fill="#231F20" d="M210.59,248.159"/>
	<path fill="#231F20" d="M275.26,237.634c1.266,0,2.289-1.026,2.289-2.292c0-1.269-1.023-2.298-2.289-2.298
		c-1.272,0-2.299,1.029-2.299,2.298C272.961,236.607,273.987,237.634,275.26,237.634z"/>
	<path fill="#231F20" d="M275.258,235.341"/>
	<circle fill="#231F20" cx="128.743" cy="130.369" r="2.292"/>
	<path fill="#231F20" d="M128.743,130.37"/>
	<path fill="#231F20" d="M229.877,156.115c1.263,0,2.293-1.026,2.293-2.293c0-1.264-1.03-2.289-2.293-2.289
		s-2.293,1.025-2.293,2.289C227.584,155.089,228.614,156.115,229.877,156.115z"/>
	<path fill="#231F20" d="M229.877,153.823"/>
	<path fill="#231F20" d="M106.791,193.727c1.268,0,2.293-1.025,2.293-2.29c0-1.266-1.025-2.291-2.293-2.291
		c-1.263,0-2.288,1.025-2.288,2.291C104.503,192.701,105.528,193.727,106.791,193.727z"/>
	<path fill="#231F20" d="M106.792,191.437"/>
	<path fill="#231F20" d="M184.015,191.159c1.267,0,2.292-1.023,2.292-2.285s-1.025-2.285-2.292-2.285
		c-1.261,0-2.282,1.023-2.282,2.285S182.755,191.159,184.015,191.159z"/>
	<path fill="#231F20" d="M184.017,188.874"/>
	<circle fill="#231F20" cx="145.691" cy="178.044" r="2.281"/>
	<path fill="#231F20" d="M145.692,178.044"/>
	<path fill="#231F20" d="M28.963,192.715c1.258,0,2.279-1.021,2.279-2.284c0-1.258-1.021-2.278-2.279-2.278
		c-1.262,0-2.283,1.021-2.283,2.278C26.679,191.693,27.701,192.715,28.963,192.715z"/>
	<path fill="#231F20" d="M28.962,190.432"/>
	<circle fill="#231F20" cx="120.405" cy="202.498" r="2.276"/>
	<path fill="#231F20" d="M120.405,202.497"/>
	<circle fill="#231F20" cx="60.81" cy="227.572" r="2.273"/>
	<path fill="#231F20" d="M60.81,227.572"/>
	<circle fill="#231F20" cx="157.908" cy="229.177" r="2.272"/>
	<path fill="#231F20" d="M157.907,229.177"/>
	<path fill="#231F20" d="M277.544,40.582c1.252,0,2.269-1.017,2.269-2.272c0-1.256-1.017-2.274-2.269-2.274
		c-1.256,0-2.272,1.018-2.272,2.274C275.271,39.565,276.288,40.582,277.544,40.582z"/>
	<path fill="#231F20" d="M277.543,38.31"/>
	<circle fill="#231F20" cx="135.974" cy="189.723" r="2.273"/>
	<path fill="#231F20" d="M135.974,189.723"/>
	<circle fill="#231F20" cx="31.53" cy="188.956" r="2.272"/>
	<path fill="#231F20" d="M31.53,188.956"/>
	<circle fill="#231F20" cx="171.823" cy="270.201" r="2.273"/>
	<path fill="#231F20" d="M171.823,270.201"/>
	<circle fill="#231F20" cx="33.075" cy="125.526" r="2.268"/>
	<path fill="#231F20" d="M33.075,125.526"/>
	<circle fill="#231F20" cx="148.494" cy="34.663" r="2.269"/>
	<path fill="#231F20" d="M148.493,34.663"/>
	<circle fill="#231F20" cx="124.447" cy="18.652" r="2.264"/>
	<path fill="#231F20" d="M124.447,18.652"/>
	<path fill="#231F20" d="M173.583,114.988c1.249,0,2.261-1.014,2.261-2.263c0-1.245-1.012-2.257-2.261-2.257
		c-1.245,0-2.26,1.012-2.26,2.257C171.323,113.975,172.338,114.988,173.583,114.988z"/>
	<path fill="#231F20" d="M173.583,112.727"/>
	<circle fill="#231F20" cx="92.796" cy="126.872" r="2.26"/>
	<path fill="#231F20" d="M92.796,126.871"/>
	<path fill="#231F20" d="M95.862,190.735c1.246,0,2.258-1.015,2.258-2.26c0-1.246-1.012-2.26-2.258-2.26
		c-1.247,0-2.262,1.014-2.262,2.26C93.6,189.721,94.615,190.735,95.862,190.735z"/>
	<path fill="#231F20" d="M95.861,188.476"/>
	<circle fill="#231F20" cx="236.551" cy="207.547" r="2.253"/>
	<path fill="#231F20" d="M236.551,207.549"/>
	<path fill="#FFFFFF" d="M236.552,208.328c0.43,0,0.781-0.349,0.781-0.778c0-0.432-0.352-0.782-0.781-0.782
		c-0.434,0-0.786,0.351-0.786,0.782C235.765,207.979,236.118,208.328,236.552,208.328z"/>
	<path fill="#FFFFFF" d="M236.551,207.549"/>
	<circle fill="#231F20" cx="250.433" cy="146.492" r="2.254"/>
	<path fill="#231F20" d="M250.433,146.491"/>
	<path fill="#231F20" d="M258.312,279.463"/>
	<path fill="#231F20" d="M121.882,150.789c1.248,0,2.257-1.006,2.257-2.253c0-1.244-1.009-2.253-2.257-2.253
		c-1.244,0-2.253,1.009-2.253,2.253C119.629,149.783,120.637,150.789,121.882,150.789z"/>
	<path fill="#231F20" d="M121.883,148.536"/>
</g>
<g id="Layer_2">
	<line fill="none" stroke="#231F20" stroke-width="2.126" x1="264.021" y1="96.074" x2="265.197" y2="123.398"/>
	<g>
		<polygon fill="#231F20" points="86.424,245.047 65.406,221.16 73.573,209.721 90.851,193.857 87.833,193.165 59.436,195.949 
			59.229,193.834 87.969,191.015 95.267,192.689 75.094,211.211 68.115,221.02 87.359,242.891 128.475,241.62 156.589,233.103 
			160.518,196.036 163.17,163.018 163.265,162.83 190.245,109.733 190.326,109.639 203.454,94.173 220.073,87.421 262.624,64.895 
			254.6,40.327 256.622,39.667 264.53,63.885 264.969,63.653 265.084,96.07 262.958,96.078 262.855,67.177 220.924,89.37 
			204.737,95.946 192.028,110.919 165.256,163.605 162.635,196.233 158.553,234.728 128.682,243.741 		"/>
	</g>
	<g>
		<path fill="#231F20" d="M37.791,103.388c1.139,0.791,2.752,1.36,4.523,1.36c2.403,0,4.617-1.423,4.617-3.985
			c0-1.613-0.885-2.783-3.131-3.985c-2.721-1.487-4.238-3.195-4.238-5.473c0-3.827,3.289-6.263,7.211-6.263
			c2.088,0,3.639,0.601,4.365,1.106L50.19,88.3c-0.664-0.411-1.992-1.044-3.669-1.012c-2.657,0-4.238,1.739-4.238,3.479
			c0,1.739,1.075,2.72,3.321,3.953c2.625,1.424,4.049,3.101,4.049,5.694c0,3.7-2.879,6.61-7.687,6.61
			c-2.151-0.031-4.239-0.695-5.124-1.486L37.791,103.388z"/>
		<path fill="#231F20" d="M70.715,106.014c-1.202,0.537-3.132,1.012-5.535,1.012c-5.378,0-8.637-3.416-8.637-8.856
			c0-4.018,1.613-7.845,4.523-10.28c2.215-1.866,4.936-2.847,8.066-2.847c2.341,0,4.049,0.601,4.618,1.012l-0.854,2.119
			c-0.79-0.474-2.309-0.885-4.207-0.885c-2.213,0-4.459,0.854-6.104,2.403c-1.993,1.866-3.258,4.871-3.258,8.13
			c0,3.796,1.739,6.959,6.484,6.959c1.613,0,3.385-0.316,4.556-0.918L70.715,106.014z"/>
		<path fill="#231F20" d="M85.103,107.025c-5.504,0-8.098-4.144-8.098-8.667c0-3.7,1.423-7.654,3.858-10.248
			c1.866-1.898,4.587-3.101,7.37-3.101c5.726,0,8.066,4.176,8.066,8.73c0,3.606-1.328,7.561-3.701,10.091
			c-1.897,2.024-4.46,3.194-7.465,3.194H85.103z M85.45,104.812c4.555,0,8.034-5.789,8.034-10.944c0-3.037-0.98-6.643-5.63-6.643
			c-4.809,0-8.098,6.01-8.098,10.913c0,3.479,1.518,6.674,5.662,6.674H85.45z"/>
		<path fill="#231F20" d="M105.406,85.675c1.297-0.285,3.068-0.443,4.649-0.443c2.119,0,3.954,0.506,5.093,1.55
			c0.98,0.822,1.582,2.057,1.582,3.512c0,3.1-2.373,5.408-5.062,6.168l-0.031,0.063c1.518,0.506,2.214,2.087,2.372,4.27
			c0.222,2.974,0.38,5.029,0.664,5.884h-2.72c-0.127-0.442-0.349-2.688-0.507-5.156c-0.158-2.941-1.233-4.144-3.353-4.144h-2.341
			l-1.739,9.3h-2.626L105.406,85.675z M106.164,95.354h2.341c3.321,0,5.473-2.183,5.473-4.713c0-2.31-1.709-3.321-4.112-3.321
			c-1.044,0-1.708,0.095-2.215,0.222L106.164,95.354z"/>
		<path fill="#231F20" d="M125.74,85.675c1.202-0.253,2.878-0.443,4.618-0.443c2.056,0,4.017,0.506,5.219,1.645
			c1.013,0.918,1.55,2.151,1.55,3.828c0,2.372-1.17,4.396-2.562,5.535c-1.646,1.392-4.049,2.056-6.453,2.056
			c-0.822,0-1.519-0.063-2.183-0.157l-1.613,8.54h-2.594L125.74,85.675z M126.34,95.923c0.76,0.158,1.36,0.19,2.119,0.19
			c3.606,0,6.011-2.215,6.011-5.22c0-2.53-1.804-3.543-4.239-3.543c-1.044,0-1.834,0.095-2.309,0.222L126.34,95.923z"/>
		<path fill="#231F20" d="M148.257,85.358l-4.049,21.319h-2.625l4.049-21.319H148.257z"/>
		<path fill="#231F20" d="M161.413,107.025c-5.504,0-8.098-4.144-8.098-8.667c0-3.7,1.422-7.654,3.857-10.248
			c1.867-1.898,4.588-3.101,7.371-3.101c5.725,0,8.066,4.176,8.066,8.73c0,3.606-1.328,7.561-3.701,10.091
			c-1.898,2.024-4.461,3.194-7.465,3.194H161.413z M161.76,104.812c4.555,0,8.033-5.789,8.033-10.944
			c0-3.037-0.98-6.643-5.629-6.643c-4.809,0-8.098,6.01-8.098,10.913c0,3.479,1.518,6.674,5.662,6.674H161.76z"/>
	</g>
</g>
</svg>
